<?xml version="1.0" encoding="UTF-8" standalone="no"?>
<!DOCTYPE svg PUBLIC "-//W3C//DTD SVG 1.1//EN"
 "http://www.w3.org/Graphics/SVG/1.1/DTD/svg11.dtd">
<!-- Generated by graphviz version 2.38.0 (20140413.2041)
 -->
<!-- Title: G Pages: 1 -->
<svg width="1947pt" height="692pt"
 viewBox="0.00 0.00 1947.13 692.00" xmlns="http://www.w3.org/2000/svg" xmlns:xlink="http://www.w3.org/1999/xlink">
<g id="graph0" class="graph" transform="scale(1 1) rotate(0) translate(4 688)">
<title>G</title>
<polygon fill="white" stroke="none" points="-4,4 -4,-688 1943.13,-688 1943.13,4 -4,4"/>
<!-- plot -->
<g id="node1" class="node"><title>plot</title>
<ellipse fill="none" stroke="black" cx="1295.13" cy="-162" rx="27" ry="18"/>
<text text-anchor="middle" x="1295.13" y="-158.3" font-family="Times,serif" font-size="14.00">plot</text>
</g>
<!-- $(MAKEFILE2DOT_PLOT) -->
<g id="node2" class="node"><title>$(MAKEFILE2DOT_PLOT)</title>
<ellipse fill="none" stroke="black" cx="1295.13" cy="-90" rx="114.28" ry="18"/>
<text text-anchor="middle" x="1295.13" y="-86.3" font-family="Times,serif" font-size="14.00">$(MAKEFILE2DOT_PLOT)</text>
</g>
<!-- $(MAKEFILE2DOT_PLOT)&#45;&gt;plot -->
<g id="edge1" class="edge"><title>$(MAKEFILE2DOT_PLOT)&#45;&gt;plot</title>
<path fill="none" stroke="black" d="M1295.13,-108.303C1295.13,-116.017 1295.13,-125.288 1295.13,-133.888"/>
<polygon fill="black" stroke="black" points="1291.63,-133.896 1295.13,-143.896 1298.63,-133.896 1291.63,-133.896"/>
</g>
<!-- results -->
<g id="node3" class="node"><title>results</title>
<ellipse fill="none" stroke="black" cx="1413.13" cy="-666" rx="33.5952" ry="18"/>
<text text-anchor="middle" x="1413.13" y="-662.3" font-family="Times,serif" font-size="14.00">results</text>
</g>
<!-- $(RESULTS_NTCIR11) -->
<g id="node4" class="node"><title>$(RESULTS_NTCIR11)</title>
<ellipse fill="none" stroke="black" cx="1413.13" cy="-594" rx="98.5829" ry="18"/>
<text text-anchor="middle" x="1413.13" y="-590.3" font-family="Times,serif" font-size="14.00">$(RESULTS_NTCIR11)</text>
</g>
<!-- $(RESULTS_NTCIR11)&#45;&gt;results -->
<g id="edge2" class="edge"><title>$(RESULTS_NTCIR11)&#45;&gt;results</title>
<path fill="none" stroke="black" d="M1413.13,-612.303C1413.13,-620.017 1413.13,-629.288 1413.13,-637.888"/>
<polygon fill="black" stroke="black" points="1409.63,-637.896 1413.13,-647.896 1416.63,-637.896 1409.63,-637.896"/>
</g>
<!-- $(MAKEFILE2DOT) -->
<g id="node5" class="node"><title>$(MAKEFILE2DOT)</title>
<ellipse fill="none" stroke="black" cx="1059.13" cy="-18" rx="88.2844" ry="18"/>
<text text-anchor="middle" x="1059.13" y="-14.3" font-family="Times,serif" font-size="14.00">$(MAKEFILE2DOT)</text>
</g>
<!-- $(MAKEFILE2DOT)&#45;&gt;$(MAKEFILE2DOT_PLOT) -->
<g id="edge3" class="edge"><title>$(MAKEFILE2DOT)&#45;&gt;$(MAKEFILE2DOT_PLOT)</title>
<path fill="none" stroke="black" d="M1106.89,-33.1655C1143.52,-44.03 1194.35,-59.1055 1233.95,-70.8534"/>
<polygon fill="black" stroke="black" points="1233.18,-74.2756 1243.77,-73.7638 1235.17,-67.5646 1233.18,-74.2756"/>
</g>
<!-- $(MAKEFILES_DEFINITIONS) -->
<g id="node6" class="node"><title>$(MAKEFILES_DEFINITIONS)</title>
<ellipse fill="none" stroke="black" cx="1295.13" cy="-18" rx="129.977" ry="18"/>
<text text-anchor="middle" x="1295.13" y="-14.3" font-family="Times,serif" font-size="14.00">$(MAKEFILES_DEFINITIONS)</text>
</g>
<!-- $(MAKEFILES_DEFINITIONS)&#45;&gt;$(MAKEFILE2DOT_PLOT) -->
<g id="edge4" class="edge"><title>$(MAKEFILES_DEFINITIONS)&#45;&gt;$(MAKEFILE2DOT_PLOT)</title>
<path fill="none" stroke="black" d="M1295.13,-36.3034C1295.13,-44.0173 1295.13,-53.2875 1295.13,-61.8876"/>
<polygon fill="black" stroke="black" points="1291.63,-61.8956 1295.13,-71.8957 1298.63,-61.8957 1291.63,-61.8956"/>
</g>
<!-- $(MAKEFILES_RECIPES) -->
<g id="node7" class="node"><title>$(MAKEFILES_RECIPES)</title>
<ellipse fill="none" stroke="black" cx="1553.13" cy="-18" rx="110.48" ry="18"/>
<text text-anchor="middle" x="1553.13" y="-14.3" font-family="Times,serif" font-size="14.00">$(MAKEFILES_RECIPES)</text>
</g>
<!-- $(MAKEFILES_RECIPES)&#45;&gt;$(MAKEFILE2DOT_PLOT) -->
<g id="edge5" class="edge"><title>$(MAKEFILES_RECIPES)&#45;&gt;$(MAKEFILE2DOT_PLOT)</title>
<path fill="none" stroke="black" d="M1498.73,-33.7597C1458.14,-44.7747 1402.52,-59.8649 1359.67,-71.4901"/>
<polygon fill="black" stroke="black" points="1358.64,-68.1436 1349.9,-74.1401 1360.47,-74.8994 1358.64,-68.1436"/>
</g>
<!-- $(NTCIR_MATH_DENSITY_NTCIR11) -->
<g id="node8" class="node"><title>$(NTCIR_MATH_DENSITY_NTCIR11)</title>
<ellipse fill="none" stroke="black" cx="344.134" cy="-378" rx="159.472" ry="18"/>
<text text-anchor="middle" x="344.134" y="-374.3" font-family="Times,serif" font-size="14.00">$(NTCIR_MATH_DENSITY_NTCIR11)</text>
</g>
<!-- $(NTCIR_MATH_DENSITY_NTCIR11)&#45;&gt;$(RESULTS_NTCIR11) -->
<g id="edge43" class="edge"><title>$(NTCIR_MATH_DENSITY_NTCIR11)&#45;&gt;$(RESULTS_NTCIR11)</title>
<path fill="none" stroke="black" d="M418.879,-393.963C615.292,-433.282 1144.26,-539.174 1339.46,-578.251"/>
<polygon fill="black" stroke="black" points="1338.84,-581.697 1349.33,-580.228 1340.22,-574.833 1338.84,-581.697"/>
</g>
<!-- $(JUDGEMENTS_NTCIR10_CONVERTED) -->
<g id="node9" class="node"><title>$(JUDGEMENTS_NTCIR10_CONVERTED)</title>
<ellipse fill="none" stroke="black" cx="176.134" cy="-306" rx="176.269" ry="18"/>
<text text-anchor="middle" x="176.134" y="-302.3" font-family="Times,serif" font-size="14.00">$(JUDGEMENTS_NTCIR10_CONVERTED)</text>
</g>
<!-- $(JUDGEMENTS_NTCIR10_CONVERTED)&#45;&gt;$(NTCIR_MATH_DENSITY_NTCIR11) -->
<g id="edge6" class="edge"><title>$(JUDGEMENTS_NTCIR10_CONVERTED)&#45;&gt;$(NTCIR_MATH_DENSITY_NTCIR11)</title>
<path fill="none" stroke="black" d="M215.948,-323.589C239.695,-333.484 270.028,-346.122 295.225,-356.621"/>
<polygon fill="black" stroke="black" points="294.03,-359.915 304.607,-360.53 296.722,-353.453 294.03,-359.915"/>
</g>
<!-- $(NTCIR_MATH_DENSITY_ALL) -->
<g id="node15" class="node"><title>$(NTCIR_MATH_DENSITY_ALL)</title>
<ellipse fill="none" stroke="black" cx="663.134" cy="-378" rx="141.875" ry="18"/>
<text text-anchor="middle" x="663.134" y="-374.3" font-family="Times,serif" font-size="14.00">$(NTCIR_MATH_DENSITY_ALL)</text>
</g>
<!-- $(JUDGEMENTS_NTCIR10_CONVERTED)&#45;&gt;$(NTCIR_MATH_DENSITY_ALL) -->
<g id="edge13" class="edge"><title>$(JUDGEMENTS_NTCIR10_CONVERTED)&#45;&gt;$(NTCIR_MATH_DENSITY_ALL)</title>
<path fill="none" stroke="black" d="M273.808,-321.039C357.723,-333.101 478.22,-350.421 562.875,-362.589"/>
<polygon fill="black" stroke="black" points="562.621,-366.088 573.017,-364.047 563.616,-359.16 562.621,-366.088"/>
</g>
<!-- $(JUDGEMENTS_NTCIR12) -->
<g id="node10" class="node"><title>$(JUDGEMENTS_NTCIR12)</title>
<ellipse fill="none" stroke="black" cx="488.134" cy="-306" rx="118.079" ry="18"/>
<text text-anchor="middle" x="488.134" y="-302.3" font-family="Times,serif" font-size="14.00">$(JUDGEMENTS_NTCIR12)</text>
</g>
<!-- $(JUDGEMENTS_NTCIR12)&#45;&gt;$(NTCIR_MATH_DENSITY_NTCIR11) -->
<g id="edge7" class="edge"><title>$(JUDGEMENTS_NTCIR12)&#45;&gt;$(NTCIR_MATH_DENSITY_NTCIR11)</title>
<path fill="none" stroke="black" d="M454.373,-323.412C434.459,-333.092 409.048,-345.445 387.643,-355.85"/>
<polygon fill="black" stroke="black" points="385.897,-352.807 378.434,-360.327 388.958,-359.103 385.897,-352.807"/>
</g>
<!-- $(NTCIR_MATH_DENSITY_ALL_WITHOUT_NTCIR10) -->
<g id="node13" class="node"><title>$(NTCIR_MATH_DENSITY_ALL_WITHOUT_NTCIR10)</title>
<ellipse fill="none" stroke="black" cx="1050.13" cy="-378" rx="226.66" ry="18"/>
<text text-anchor="middle" x="1050.13" y="-374.3" font-family="Times,serif" font-size="14.00">$(NTCIR_MATH_DENSITY_ALL_WITHOUT_NTCIR10)</text>
</g>
<!-- $(JUDGEMENTS_NTCIR12)&#45;&gt;$(NTCIR_MATH_DENSITY_ALL_WITHOUT_NTCIR10) -->
<g id="edge11" class="edge"><title>$(JUDGEMENTS_NTCIR12)&#45;&gt;$(NTCIR_MATH_DENSITY_ALL_WITHOUT_NTCIR10)</title>
<path fill="none" stroke="black" d="M573.167,-318.524C587.184,-320.383 601.564,-322.265 615.134,-324 717.306,-337.062 833.076,-351.132 919.484,-361.49"/>
<polygon fill="black" stroke="black" points="919.262,-364.989 929.607,-362.703 920.095,-358.038 919.262,-364.989"/>
</g>
<!-- $(JUDGEMENTS_NTCIR12)&#45;&gt;$(NTCIR_MATH_DENSITY_ALL) -->
<g id="edge15" class="edge"><title>$(JUDGEMENTS_NTCIR12)&#45;&gt;$(NTCIR_MATH_DENSITY_ALL)</title>
<path fill="none" stroke="black" d="M528.283,-323.059C553.357,-333.089 585.856,-346.089 612.667,-356.813"/>
<polygon fill="black" stroke="black" points="611.678,-360.187 622.263,-360.651 614.278,-353.688 611.678,-360.187"/>
</g>
<!-- $(DATASET_NTCIR11_12) -->
<g id="node11" class="node"><title>$(DATASET_NTCIR11_12)</title>
<ellipse fill="none" stroke="black" cx="1072.13" cy="-306" rx="113.98" ry="18"/>
<text text-anchor="middle" x="1072.13" y="-302.3" font-family="Times,serif" font-size="14.00">$(DATASET_NTCIR11_12)</text>
</g>
<!-- $(DATASET_NTCIR11_12)&#45;&gt;$(RESULTS_NTCIR11) -->
<g id="edge42" class="edge"><title>$(DATASET_NTCIR11_12)&#45;&gt;$(RESULTS_NTCIR11)</title>
<path fill="none" stroke="black" d="M1152.88,-318.7C1205.01,-327.778 1266.61,-341.866 1286.13,-360 1347.82,-417.288 1296.72,-471.128 1345.13,-540 1353.52,-551.922 1365.36,-562.443 1376.82,-570.903"/>
<polygon fill="black" stroke="black" points="1374.85,-573.795 1385.04,-576.689 1378.88,-568.071 1374.85,-573.795"/>
</g>
<!-- $(DATASET_NTCIR11_12)&#45;&gt;$(NTCIR_MATH_DENSITY_NTCIR11) -->
<g id="edge8" class="edge"><title>$(DATASET_NTCIR11_12)&#45;&gt;$(NTCIR_MATH_DENSITY_NTCIR11)</title>
<path fill="none" stroke="black" d="M991.825,-318.749C977.619,-320.642 962.955,-322.477 949.134,-324 755.427,-345.349 706.199,-342.189 512.134,-360 497.527,-361.341 482.211,-362.807 467.022,-364.298"/>
<polygon fill="black" stroke="black" points="466.675,-360.815 457.067,-365.28 467.363,-367.781 466.675,-360.815"/>
</g>
<!-- $(DATASET_NTCIR11_12)&#45;&gt;$(NTCIR_MATH_DENSITY_ALL_WITHOUT_NTCIR10) -->
<g id="edge12" class="edge"><title>$(DATASET_NTCIR11_12)&#45;&gt;$(NTCIR_MATH_DENSITY_ALL_WITHOUT_NTCIR10)</title>
<path fill="none" stroke="black" d="M1066.7,-324.303C1064.25,-332.102 1061.29,-341.491 1058.57,-350.171"/>
<polygon fill="black" stroke="black" points="1055.17,-349.306 1055.51,-359.896 1061.85,-351.405 1055.17,-349.306"/>
</g>
<!-- $(DATASET_NTCIR11_12)&#45;&gt;$(NTCIR_MATH_DENSITY_ALL) -->
<g id="edge16" class="edge"><title>$(DATASET_NTCIR11_12)&#45;&gt;$(NTCIR_MATH_DENSITY_ALL)</title>
<path fill="none" stroke="black" d="M998.068,-319.676C929.581,-331.398 827.599,-348.852 754.171,-361.419"/>
<polygon fill="black" stroke="black" points="753.272,-358.022 744.005,-363.159 754.453,-364.922 753.272,-358.022"/>
</g>
<!-- $(INDEX_NTCIR11_12) -->
<g id="node21" class="node"><title>$(INDEX_NTCIR11_12)</title>
<ellipse fill="none" stroke="black" cx="1665.13" cy="-378" rx="100.983" ry="18"/>
<text text-anchor="middle" x="1665.13" y="-374.3" font-family="Times,serif" font-size="14.00">$(INDEX_NTCIR11_12)</text>
</g>
<!-- $(DATASET_NTCIR11_12)&#45;&gt;$(INDEX_NTCIR11_12) -->
<g id="edge26" class="edge"><title>$(DATASET_NTCIR11_12)&#45;&gt;$(INDEX_NTCIR11_12)</title>
<path fill="none" stroke="black" d="M1153.13,-318.639C1167.12,-320.523 1181.54,-322.383 1195.13,-324 1355.25,-343.041 1396.19,-339.569 1556.13,-360 1565.06,-361.141 1574.39,-362.435 1583.66,-363.789"/>
<polygon fill="black" stroke="black" points="1583.28,-367.271 1593.68,-365.277 1584.31,-360.347 1583.28,-367.271"/>
</g>
<!-- $(DATASET_NTCIR10_CONVERTED) -->
<g id="node12" class="node"><title>$(DATASET_NTCIR10_CONVERTED)</title>
<ellipse fill="none" stroke="black" cx="782.134" cy="-306" rx="157.872" ry="18"/>
<text text-anchor="middle" x="782.134" y="-302.3" font-family="Times,serif" font-size="14.00">$(DATASET_NTCIR10_CONVERTED)</text>
</g>
<!-- $(DATASET_NTCIR10_CONVERTED)&#45;&gt;$(NTCIR_MATH_DENSITY_NTCIR11) -->
<g id="edge9" class="edge"><title>$(DATASET_NTCIR10_CONVERTED)&#45;&gt;$(NTCIR_MATH_DENSITY_NTCIR11)</title>
<path fill="none" stroke="black" d="M694.551,-320.997C621.561,-332.662 517.665,-349.267 441.961,-361.366"/>
<polygon fill="black" stroke="black" points="441.263,-357.933 431.94,-362.967 442.367,-364.845 441.263,-357.933"/>
</g>
<!-- $(DATASET_NTCIR10_CONVERTED)&#45;&gt;$(NTCIR_MATH_DENSITY_ALL) -->
<g id="edge17" class="edge"><title>$(DATASET_NTCIR10_CONVERTED)&#45;&gt;$(NTCIR_MATH_DENSITY_ALL)</title>
<path fill="none" stroke="black" d="M753.631,-323.767C737.704,-333.135 717.667,-344.922 700.498,-355.022"/>
<polygon fill="black" stroke="black" points="698.662,-352.04 691.818,-360.127 702.212,-358.074 698.662,-352.04"/>
</g>
<!-- $(INDEX_NTCIR10) -->
<g id="node19" class="node"><title>$(INDEX_NTCIR10)</title>
<ellipse fill="none" stroke="black" cx="1459.13" cy="-378" rx="87.9851" ry="18"/>
<text text-anchor="middle" x="1459.13" y="-374.3" font-family="Times,serif" font-size="14.00">$(INDEX_NTCIR10)</text>
</g>
<!-- $(DATASET_NTCIR10_CONVERTED)&#45;&gt;$(INDEX_NTCIR10) -->
<g id="edge24" class="edge"><title>$(DATASET_NTCIR10_CONVERTED)&#45;&gt;$(INDEX_NTCIR10)</title>
<path fill="none" stroke="black" d="M894.687,-318.638C1029.09,-332.534 1250.94,-355.473 1372.63,-368.056"/>
<polygon fill="black" stroke="black" points="1372.35,-371.545 1382.65,-369.092 1373.07,-364.582 1372.35,-371.545"/>
</g>
<!-- $(JUDGEMENTS_NTCIR11) -->
<g id="node14" class="node"><title>$(JUDGEMENTS_NTCIR11)</title>
<ellipse fill="none" stroke="black" cx="1322.13" cy="-306" rx="118.079" ry="18"/>
<text text-anchor="middle" x="1322.13" y="-302.3" font-family="Times,serif" font-size="14.00">$(JUDGEMENTS_NTCIR11)</text>
</g>
<!-- $(JUDGEMENTS_NTCIR11)&#45;&gt;$(RESULTS_NTCIR11) -->
<g id="edge40" class="edge"><title>$(JUDGEMENTS_NTCIR11)&#45;&gt;$(RESULTS_NTCIR11)</title>
<path fill="none" stroke="black" d="M1321.73,-324.149C1321.47,-364.222 1324.82,-466.194 1362.13,-540 1367.62,-550.841 1376.07,-560.944 1384.52,-569.36"/>
<polygon fill="black" stroke="black" points="1382.2,-571.984 1391.88,-576.298 1387,-566.891 1382.2,-571.984"/>
</g>
<!-- $(JUDGEMENTS_NTCIR11)&#45;&gt;$(NTCIR_MATH_DENSITY_ALL_WITHOUT_NTCIR10) -->
<g id="edge10" class="edge"><title>$(JUDGEMENTS_NTCIR11)&#45;&gt;$(NTCIR_MATH_DENSITY_ALL_WITHOUT_NTCIR10)</title>
<path fill="none" stroke="black" d="M1264.78,-321.76C1223.63,-332.35 1167.84,-346.708 1123.45,-358.132"/>
<polygon fill="black" stroke="black" points="1122.4,-354.788 1113.59,-360.67 1124.14,-361.567 1122.4,-354.788"/>
</g>
<!-- $(JUDGEMENTS_NTCIR11)&#45;&gt;$(NTCIR_MATH_DENSITY_ALL) -->
<g id="edge14" class="edge"><title>$(JUDGEMENTS_NTCIR11)&#45;&gt;$(NTCIR_MATH_DENSITY_ALL)</title>
<path fill="none" stroke="black" d="M1238.17,-318.708C1223.82,-320.574 1209.06,-322.411 1195.13,-324 1026.14,-343.287 983.318,-342.485 814.134,-360 801.274,-361.331 787.804,-362.776 774.429,-364.242"/>
<polygon fill="black" stroke="black" points="773.788,-360.791 764.231,-365.365 774.554,-367.749 773.788,-360.791"/>
</g>
<!-- $(NTCIR10_MATH_CONVERTER) -->
<g id="node16" class="node"><title>$(NTCIR10_MATH_CONVERTER)</title>
<ellipse fill="none" stroke="black" cx="472.134" cy="-234" rx="143.775" ry="18"/>
<text text-anchor="middle" x="472.134" y="-230.3" font-family="Times,serif" font-size="14.00">$(NTCIR10_MATH_CONVERTER)</text>
</g>
<!-- $(NTCIR10_MATH_CONVERTER)&#45;&gt;$(JUDGEMENTS_NTCIR10_CONVERTED) -->
<g id="edge22" class="edge"><title>$(NTCIR10_MATH_CONVERTER)&#45;&gt;$(JUDGEMENTS_NTCIR10_CONVERTED)</title>
<path fill="none" stroke="black" d="M407.907,-250.189C362.174,-261.004 300.528,-275.583 252.309,-286.986"/>
<polygon fill="black" stroke="black" points="251.47,-283.588 242.544,-289.295 253.081,-290.4 251.47,-283.588"/>
</g>
<!-- $(NTCIR10_MATH_CONVERTER)&#45;&gt;$(DATASET_NTCIR10_CONVERTED) -->
<g id="edge19" class="edge"><title>$(NTCIR10_MATH_CONVERTER)&#45;&gt;$(DATASET_NTCIR10_CONVERTED)</title>
<path fill="none" stroke="black" d="M538.637,-250.017C587.256,-260.995 653.344,-275.918 704.402,-287.448"/>
<polygon fill="black" stroke="black" points="703.878,-290.917 714.404,-289.706 705.42,-284.089 703.878,-290.917"/>
</g>
<!-- $(DATASET_NTCIR10) -->
<g id="node17" class="node"><title>$(DATASET_NTCIR10)</title>
<ellipse fill="none" stroke="black" cx="750.134" cy="-234" rx="100.983" ry="18"/>
<text text-anchor="middle" x="750.134" y="-230.3" font-family="Times,serif" font-size="14.00">$(DATASET_NTCIR10)</text>
</g>
<!-- $(DATASET_NTCIR10)&#45;&gt;$(JUDGEMENTS_NTCIR10_CONVERTED) -->
<g id="edge20" class="edge"><title>$(DATASET_NTCIR10)&#45;&gt;$(JUDGEMENTS_NTCIR10_CONVERTED)</title>
<path fill="none" stroke="black" d="M673.147,-245.688C657.277,-247.83 640.669,-250.027 625.134,-252 515.181,-265.965 389.918,-280.65 299.687,-291.011"/>
<polygon fill="black" stroke="black" points="299.226,-287.541 289.69,-292.158 300.024,-294.495 299.226,-287.541"/>
</g>
<!-- $(DATASET_NTCIR10)&#45;&gt;$(DATASET_NTCIR10_CONVERTED) -->
<g id="edge18" class="edge"><title>$(DATASET_NTCIR10)&#45;&gt;$(DATASET_NTCIR10_CONVERTED)</title>
<path fill="none" stroke="black" d="M758.044,-252.303C761.687,-260.272 766.089,-269.9 770.128,-278.736"/>
<polygon fill="black" stroke="black" points="766.974,-280.256 774.315,-287.896 773.341,-277.346 766.974,-280.256"/>
</g>
<!-- $(JUDGEMENTS_NTCIR10) -->
<g id="node18" class="node"><title>$(JUDGEMENTS_NTCIR10)</title>
<ellipse fill="none" stroke="black" cx="176.134" cy="-234" rx="118.079" ry="18"/>
<text text-anchor="middle" x="176.134" y="-230.3" font-family="Times,serif" font-size="14.00">$(JUDGEMENTS_NTCIR10)</text>
</g>
<!-- $(JUDGEMENTS_NTCIR10)&#45;&gt;$(JUDGEMENTS_NTCIR10_CONVERTED) -->
<g id="edge21" class="edge"><title>$(JUDGEMENTS_NTCIR10)&#45;&gt;$(JUDGEMENTS_NTCIR10_CONVERTED)</title>
<path fill="none" stroke="black" d="M176.134,-252.303C176.134,-260.017 176.134,-269.288 176.134,-277.888"/>
<polygon fill="black" stroke="black" points="172.634,-277.896 176.134,-287.896 179.634,-277.896 172.634,-277.896"/>
</g>
<!-- $(MIAS) -->
<g id="node20" class="node"><title>$(MIAS)</title>
<ellipse fill="none" stroke="black" cx="1665.13" cy="-306" rx="43.5923" ry="18"/>
<text text-anchor="middle" x="1665.13" y="-302.3" font-family="Times,serif" font-size="14.00">$(MIAS)</text>
</g>
<!-- $(MIAS)&#45;&gt;$(INDEX_NTCIR10) -->
<g id="edge23" class="edge"><title>$(MIAS)&#45;&gt;$(INDEX_NTCIR10)</title>
<path fill="none" stroke="black" d="M1632.49,-318.092C1600.21,-329.062 1550.26,-346.036 1512.25,-358.95"/>
<polygon fill="black" stroke="black" points="1510.71,-355.776 1502.37,-362.308 1512.97,-362.404 1510.71,-355.776"/>
</g>
<!-- $(MIAS)&#45;&gt;$(INDEX_NTCIR11_12) -->
<g id="edge25" class="edge"><title>$(MIAS)&#45;&gt;$(INDEX_NTCIR11_12)</title>
<path fill="none" stroke="black" d="M1665.13,-324.303C1665.13,-332.017 1665.13,-341.288 1665.13,-349.888"/>
<polygon fill="black" stroke="black" points="1661.63,-349.896 1665.13,-359.896 1668.63,-349.896 1661.63,-349.896"/>
</g>
<!-- $(WEBMIAS) -->
<g id="node22" class="node"><title>$(WEBMIAS)</title>
<ellipse fill="none" stroke="black" cx="1847.13" cy="-378" rx="63.8893" ry="18"/>
<text text-anchor="middle" x="1847.13" y="-374.3" font-family="Times,serif" font-size="14.00">$(WEBMIAS)</text>
</g>
<!-- $(MIAS)&#45;&gt;$(WEBMIAS) -->
<g id="edge27" class="edge"><title>$(MIAS)&#45;&gt;$(WEBMIAS)</title>
<path fill="none" stroke="black" d="M1696.01,-318.875C1724.99,-330.022 1768.71,-346.835 1801.67,-359.515"/>
<polygon fill="black" stroke="black" points="1800.51,-362.817 1811.1,-363.14 1803.02,-356.284 1800.51,-362.817"/>
</g>
<!-- $(TOMCAT) -->
<g id="node29" class="node"><title>$(TOMCAT)</title>
<ellipse fill="none" stroke="black" cx="1665.13" cy="-450" rx="58.4896" ry="18"/>
<text text-anchor="middle" x="1665.13" y="-446.3" font-family="Times,serif" font-size="14.00">$(TOMCAT)</text>
</g>
<!-- $(INDEX_NTCIR11_12)&#45;&gt;$(TOMCAT) -->
<g id="edge46" class="edge"><title>$(INDEX_NTCIR11_12)&#45;&gt;$(TOMCAT)</title>
<path fill="none" stroke="black" d="M1665.13,-396.303C1665.13,-404.017 1665.13,-413.288 1665.13,-421.888"/>
<polygon fill="black" stroke="black" points="1661.63,-421.896 1665.13,-431.896 1668.63,-421.896 1661.63,-421.896"/>
</g>
<!-- $(WEBMIAS)&#45;&gt;$(TOMCAT) -->
<g id="edge45" class="edge"><title>$(WEBMIAS)&#45;&gt;$(TOMCAT)</title>
<path fill="none" stroke="black" d="M1810.74,-392.997C1781.72,-404.158 1740.95,-419.84 1709.93,-431.771"/>
<polygon fill="black" stroke="black" points="1708.3,-428.646 1700.23,-435.503 1710.82,-435.18 1708.3,-428.646"/>
</g>
<!-- $(MAVEN) -->
<g id="node23" class="node"><title>$(MAVEN)</title>
<ellipse fill="none" stroke="black" cx="1719.13" cy="-90" rx="53.8905" ry="18"/>
<text text-anchor="middle" x="1719.13" y="-86.3" font-family="Times,serif" font-size="14.00">$(MAVEN)</text>
</g>
<!-- $(MAVEN)&#45;&gt;$(MIAS) -->
<g id="edge30" class="edge"><title>$(MAVEN)&#45;&gt;$(MIAS)</title>
<path fill="none" stroke="black" d="M1665.23,-91.6905C1582.02,-94.0264 1428.29,-103.819 1394.13,-144 1324.71,-225.664 1520.15,-276.611 1615.8,-296.04"/>
<polygon fill="black" stroke="black" points="1615.35,-299.519 1625.84,-298.039 1616.72,-292.654 1615.35,-299.519"/>
</g>
<!-- $(MAVEN)&#45;&gt;$(WEBMIAS) -->
<g id="edge28" class="edge"><title>$(MAVEN)&#45;&gt;$(WEBMIAS)</title>
<path fill="none" stroke="black" d="M1764.6,-99.7469C1789.75,-107.102 1819.08,-120.376 1835.13,-144 1878.01,-207.095 1864.29,-303.457 1854.05,-349.992"/>
<polygon fill="black" stroke="black" points="1850.6,-349.388 1851.75,-359.92 1857.42,-350.969 1850.6,-349.388"/>
</g>
<!-- $(MIASMATH) -->
<g id="node24" class="node"><title>$(MIASMATH)</title>
<ellipse fill="none" stroke="black" cx="1680.13" cy="-234" rx="69.5877" ry="18"/>
<text text-anchor="middle" x="1680.13" y="-230.3" font-family="Times,serif" font-size="14.00">$(MIASMATH)</text>
</g>
<!-- $(MAVEN)&#45;&gt;$(MIASMATH) -->
<g id="edge33" class="edge"><title>$(MAVEN)&#45;&gt;$(MIASMATH)</title>
<path fill="none" stroke="black" d="M1759.63,-101.925C1780.72,-109.899 1804.66,-123.065 1817.13,-144 1825.33,-157.744 1826.18,-166.802 1817.13,-180 1801.99,-202.099 1776.2,-214.986 1751.06,-222.5"/>
<polygon fill="black" stroke="black" points="1749.83,-219.207 1741.11,-225.217 1751.68,-225.96 1749.83,-219.207"/>
</g>
<!-- $(MATHMLCAN) -->
<g id="node25" class="node"><title>$(MATHMLCAN)</title>
<ellipse fill="none" stroke="black" cx="1482.13" cy="-162" rx="79.0865" ry="18"/>
<text text-anchor="middle" x="1482.13" y="-158.3" font-family="Times,serif" font-size="14.00">$(MATHMLCAN)</text>
</g>
<!-- $(MAVEN)&#45;&gt;$(MATHMLCAN) -->
<g id="edge34" class="edge"><title>$(MAVEN)&#45;&gt;$(MATHMLCAN)</title>
<path fill="none" stroke="black" d="M1680,-102.559C1641.37,-113.967 1581.93,-131.524 1538.28,-144.418"/>
<polygon fill="black" stroke="black" points="1537.26,-141.07 1528.66,-147.259 1539.24,-147.783 1537.26,-141.07"/>
</g>
<!-- $(MATHMLUNIFICATOR) -->
<g id="node26" class="node"><title>$(MATHMLUNIFICATOR)</title>
<ellipse fill="none" stroke="black" cx="1694.13" cy="-162" rx="114.28" ry="18"/>
<text text-anchor="middle" x="1694.13" y="-158.3" font-family="Times,serif" font-size="14.00">$(MATHMLUNIFICATOR)</text>
</g>
<!-- $(MAVEN)&#45;&gt;$(MATHMLUNIFICATOR) -->
<g id="edge35" class="edge"><title>$(MAVEN)&#45;&gt;$(MATHMLUNIFICATOR)</title>
<path fill="none" stroke="black" d="M1713.08,-107.945C1710.27,-115.824 1706.85,-125.383 1703.7,-134.206"/>
<polygon fill="black" stroke="black" points="1700.37,-133.13 1700.3,-143.725 1706.96,-135.484 1700.37,-133.13"/>
</g>
<!-- $(MIREVAL) -->
<g id="node27" class="node"><title>$(MIREVAL)</title>
<ellipse fill="none" stroke="black" cx="1871.13" cy="-450" rx="61.99" ry="18"/>
<text text-anchor="middle" x="1871.13" y="-446.3" font-family="Times,serif" font-size="14.00">$(MIREVAL)</text>
</g>
<!-- $(MAVEN)&#45;&gt;$(MIREVAL) -->
<g id="edge36" class="edge"><title>$(MAVEN)&#45;&gt;$(MIREVAL)</title>
<path fill="none" stroke="black" d="M1765.25,-99.3568C1829.76,-114.007 1939.13,-150.945 1939.13,-233 1939.13,-233 1939.13,-233 1939.13,-307 1939.13,-347.447 1938.75,-360.091 1920.13,-396 1914.51,-406.842 1906.07,-417.11 1897.77,-425.669"/>
<polygon fill="black" stroke="black" points="1895.27,-423.22 1890.59,-432.723 1900.17,-428.215 1895.27,-423.22"/>
</g>
<!-- $(MIASMATH)&#45;&gt;$(MIAS) -->
<g id="edge29" class="edge"><title>$(MIASMATH)&#45;&gt;$(MIAS)</title>
<path fill="none" stroke="black" d="M1676.43,-252.303C1674.77,-260.017 1672.79,-269.288 1670.94,-277.888"/>
<polygon fill="black" stroke="black" points="1667.47,-277.384 1668.8,-287.896 1674.32,-278.851 1667.47,-277.384"/>
</g>
<!-- $(MATHMLCAN)&#45;&gt;$(MIASMATH) -->
<g id="edge31" class="edge"><title>$(MATHMLCAN)&#45;&gt;$(MIASMATH)</title>
<path fill="none" stroke="black" d="M1523.16,-177.504C1554.6,-188.621 1598.1,-203.997 1631.33,-215.745"/>
<polygon fill="black" stroke="black" points="1630.25,-219.077 1640.85,-219.111 1632.59,-212.478 1630.25,-219.077"/>
</g>
<!-- $(MATHMLUNIFICATOR)&#45;&gt;$(MIASMATH) -->
<g id="edge32" class="edge"><title>$(MATHMLUNIFICATOR)&#45;&gt;$(MIASMATH)</title>
<path fill="none" stroke="black" d="M1690.67,-180.303C1689.13,-188.017 1687.28,-197.288 1685.56,-205.888"/>
<polygon fill="black" stroke="black" points="1682.08,-205.403 1683.56,-215.896 1688.95,-206.776 1682.08,-205.403"/>
</g>
<!-- $(MIREVAL)&#45;&gt;$(RESULTS_NTCIR11) -->
<g id="edge38" class="edge"><title>$(MIREVAL)&#45;&gt;$(RESULTS_NTCIR11)</title>
<path fill="none" stroke="black" d="M1812.66,-456.118C1764.96,-462.24 1697.05,-475.511 1644.13,-504 1623.65,-515.028 1626.4,-528.578 1606.13,-540 1572.38,-559.024 1531.41,-571.531 1495.91,-579.589"/>
<polygon fill="black" stroke="black" points="1495.08,-576.189 1486.06,-581.745 1496.58,-583.027 1495.08,-576.189"/>
</g>
<!-- $(NTCIR_MIAS_SEARCH) -->
<g id="node28" class="node"><title>$(NTCIR_MIAS_SEARCH)</title>
<ellipse fill="none" stroke="black" cx="1484.13" cy="-522" rx="113.18" ry="18"/>
<text text-anchor="middle" x="1484.13" y="-518.3" font-family="Times,serif" font-size="14.00">$(NTCIR_MIAS_SEARCH)</text>
</g>
<!-- $(NTCIR_MIAS_SEARCH)&#45;&gt;$(RESULTS_NTCIR11) -->
<g id="edge41" class="edge"><title>$(NTCIR_MIAS_SEARCH)&#45;&gt;$(RESULTS_NTCIR11)</title>
<path fill="none" stroke="black" d="M1466.95,-539.945C1458.05,-548.715 1447.04,-559.568 1437.31,-569.169"/>
<polygon fill="black" stroke="black" points="1434.83,-566.698 1430.16,-576.211 1439.74,-571.683 1434.83,-566.698"/>
</g>
<!-- $(TOMCAT)&#45;&gt;$(NTCIR_MIAS_SEARCH) -->
<g id="edge37" class="edge"><title>$(TOMCAT)&#45;&gt;$(NTCIR_MIAS_SEARCH)</title>
<path fill="none" stroke="black" d="M1630.24,-464.497C1603.17,-474.965 1565.27,-489.622 1534.85,-501.386"/>
<polygon fill="black" stroke="black" points="1533.33,-498.223 1525.26,-505.094 1535.85,-504.751 1533.33,-498.223"/>
</g>
<!-- $(TOPICS_NTCIR11) -->
<g id="node30" class="node"><title>$(TOPICS_NTCIR11)</title>
<ellipse fill="none" stroke="black" cx="1744.13" cy="-522" rx="90.9839" ry="18"/>
<text text-anchor="middle" x="1744.13" y="-518.3" font-family="Times,serif" font-size="14.00">$(TOPICS_NTCIR11)</text>
</g>
<!-- $(TOPICS_NTCIR11)&#45;&gt;$(RESULTS_NTCIR11) -->
<g id="edge39" class="edge"><title>$(TOPICS_NTCIR11)&#45;&gt;$(RESULTS_NTCIR11)</title>
<path fill="none" stroke="black" d="M1684.19,-535.676C1628.19,-547.52 1544.51,-565.217 1484.96,-577.811"/>
<polygon fill="black" stroke="black" points="1483.93,-574.45 1474.87,-579.943 1485.38,-581.298 1483.93,-574.45"/>
</g>
<!-- $(JDK) -->
<g id="node31" class="node"><title>$(JDK)</title>
<ellipse fill="none" stroke="black" cx="1719.13" cy="-18" rx="37.0935" ry="18"/>
<text text-anchor="middle" x="1719.13" y="-14.3" font-family="Times,serif" font-size="14.00">$(JDK)</text>
</g>
<!-- $(JDK)&#45;&gt;$(MAVEN) -->
<g id="edge44" class="edge"><title>$(JDK)&#45;&gt;$(MAVEN)</title>
<path fill="none" stroke="black" d="M1719.13,-36.3034C1719.13,-44.0173 1719.13,-53.2875 1719.13,-61.8876"/>
<polygon fill="black" stroke="black" points="1715.63,-61.8956 1719.13,-71.8957 1722.63,-61.8957 1715.63,-61.8956"/>
</g>
</g>
</svg>
