<?xml version="1.0" encoding="UTF-8" standalone="no"?>
<!DOCTYPE svg PUBLIC "-//W3C//DTD SVG 1.1//EN"
 "http://www.w3.org/Graphics/SVG/1.1/DTD/svg11.dtd">
<!-- Generated by graphviz version 2.38.0 (20140413.2041)
 -->
<!-- Title: G Pages: 1 -->
<svg width="1786pt" height="692pt"
 viewBox="0.00 0.00 1786.11 692.00" xmlns="http://www.w3.org/2000/svg" xmlns:xlink="http://www.w3.org/1999/xlink">
<g id="graph0" class="graph" transform="scale(1 1) rotate(0) translate(4 688)">
<title>G</title>
<polygon fill="white" stroke="none" points="-4,4 -4,-688 1782.11,-688 1782.11,4 -4,4"/>
<!-- plot -->
<g id="node1" class="node"><title>plot</title>
<ellipse fill="none" stroke="black" cx="1159.29" cy="-162" rx="27" ry="18"/>
<text text-anchor="middle" x="1159.29" y="-158.3" font-family="Times,serif" font-size="14.00">plot</text>
</g>
<!-- $(MAKEFILE2DOT_PLOT) -->
<g id="node2" class="node"><title>$(MAKEFILE2DOT_PLOT)</title>
<ellipse fill="none" stroke="black" cx="1159.29" cy="-90" rx="114.28" ry="18"/>
<text text-anchor="middle" x="1159.29" y="-86.3" font-family="Times,serif" font-size="14.00">$(MAKEFILE2DOT_PLOT)</text>
</g>
<!-- $(MAKEFILE2DOT_PLOT)&#45;&gt;plot -->
<g id="edge1" class="edge"><title>$(MAKEFILE2DOT_PLOT)&#45;&gt;plot</title>
<path fill="none" stroke="black" d="M1159.29,-108.303C1159.29,-116.017 1159.29,-125.288 1159.29,-133.888"/>
<polygon fill="black" stroke="black" points="1155.79,-133.896 1159.29,-143.896 1162.79,-133.896 1155.79,-133.896"/>
</g>
<!-- results -->
<g id="node3" class="node"><title>results</title>
<ellipse fill="none" stroke="black" cx="674.29" cy="-666" rx="33.5952" ry="18"/>
<text text-anchor="middle" x="674.29" y="-662.3" font-family="Times,serif" font-size="14.00">results</text>
</g>
<!-- $(RESULTS_NTCIR11) -->
<g id="node4" class="node"><title>$(RESULTS_NTCIR11)</title>
<ellipse fill="none" stroke="black" cx="1180.29" cy="-594" rx="98.5829" ry="18"/>
<text text-anchor="middle" x="1180.29" y="-590.3" font-family="Times,serif" font-size="14.00">$(RESULTS_NTCIR11)</text>
</g>
<!-- $(RESULTS_NTCIR11)&#45;&gt;results -->
<g id="edge2" class="edge"><title>$(RESULTS_NTCIR11)&#45;&gt;results</title>
<path fill="none" stroke="black" d="M1104.26,-605.518C996.338,-620.448 802.335,-647.286 716.787,-659.121"/>
<polygon fill="black" stroke="black" points="716.089,-655.684 706.663,-660.522 717.048,-662.618 716.089,-655.684"/>
</g>
<!-- $(NTCIR_MATH_DENSITY_ALL_WITHOUT_NTCIR10) -->
<g id="node5" class="node"><title>$(NTCIR_MATH_DENSITY_ALL_WITHOUT_NTCIR10)</title>
<ellipse fill="none" stroke="black" cx="287.29" cy="-378" rx="226.66" ry="18"/>
<text text-anchor="middle" x="287.29" y="-374.3" font-family="Times,serif" font-size="14.00">$(NTCIR_MATH_DENSITY_ALL_WITHOUT_NTCIR10)</text>
</g>
<!-- $(NTCIR_MATH_DENSITY_ALL_WITHOUT_NTCIR10)&#45;&gt;results -->
<g id="edge3" class="edge"><title>$(NTCIR_MATH_DENSITY_ALL_WITHOUT_NTCIR10)&#45;&gt;results</title>
<path fill="none" stroke="black" d="M310.339,-396.034C377.733,-445.839 574.243,-591.064 646.883,-644.746"/>
<polygon fill="black" stroke="black" points="644.988,-647.698 655.111,-650.826 649.148,-642.068 644.988,-647.698"/>
</g>
<!-- $(NTCIR_MATH_DENSITY_ALL) -->
<g id="node6" class="node"><title>$(NTCIR_MATH_DENSITY_ALL)</title>
<ellipse fill="none" stroke="black" cx="674.29" cy="-378" rx="141.875" ry="18"/>
<text text-anchor="middle" x="674.29" y="-374.3" font-family="Times,serif" font-size="14.00">$(NTCIR_MATH_DENSITY_ALL)</text>
</g>
<!-- $(NTCIR_MATH_DENSITY_ALL)&#45;&gt;results -->
<g id="edge4" class="edge"><title>$(NTCIR_MATH_DENSITY_ALL)&#45;&gt;results</title>
<path fill="none" stroke="black" d="M674.29,-396.034C674.29,-443.709 674.29,-578.815 674.29,-637.37"/>
<polygon fill="black" stroke="black" points="670.79,-637.694 674.29,-647.694 677.79,-637.694 670.79,-637.694"/>
</g>
<!-- $(MAKEFILE2DOT) -->
<g id="node7" class="node"><title>$(MAKEFILE2DOT)</title>
<ellipse fill="none" stroke="black" cx="923.29" cy="-18" rx="88.2844" ry="18"/>
<text text-anchor="middle" x="923.29" y="-14.3" font-family="Times,serif" font-size="14.00">$(MAKEFILE2DOT)</text>
</g>
<!-- $(MAKEFILE2DOT)&#45;&gt;$(MAKEFILE2DOT_PLOT) -->
<g id="edge5" class="edge"><title>$(MAKEFILE2DOT)&#45;&gt;$(MAKEFILE2DOT_PLOT)</title>
<path fill="none" stroke="black" d="M971.048,-33.1655C1007.68,-44.03 1058.5,-59.1055 1098.11,-70.8534"/>
<polygon fill="black" stroke="black" points="1097.34,-74.2756 1107.92,-73.7638 1099.33,-67.5646 1097.34,-74.2756"/>
</g>
<!-- $(MAKEFILES_DEFINITIONS) -->
<g id="node8" class="node"><title>$(MAKEFILES_DEFINITIONS)</title>
<ellipse fill="none" stroke="black" cx="1159.29" cy="-18" rx="129.977" ry="18"/>
<text text-anchor="middle" x="1159.29" y="-14.3" font-family="Times,serif" font-size="14.00">$(MAKEFILES_DEFINITIONS)</text>
</g>
<!-- $(MAKEFILES_DEFINITIONS)&#45;&gt;$(MAKEFILE2DOT_PLOT) -->
<g id="edge6" class="edge"><title>$(MAKEFILES_DEFINITIONS)&#45;&gt;$(MAKEFILE2DOT_PLOT)</title>
<path fill="none" stroke="black" d="M1159.29,-36.3034C1159.29,-44.0173 1159.29,-53.2875 1159.29,-61.8876"/>
<polygon fill="black" stroke="black" points="1155.79,-61.8956 1159.29,-71.8957 1162.79,-61.8957 1155.79,-61.8956"/>
</g>
<!-- $(MAKEFILES_RECIPES) -->
<g id="node9" class="node"><title>$(MAKEFILES_RECIPES)</title>
<ellipse fill="none" stroke="black" cx="1417.29" cy="-18" rx="110.48" ry="18"/>
<text text-anchor="middle" x="1417.29" y="-14.3" font-family="Times,serif" font-size="14.00">$(MAKEFILES_RECIPES)</text>
</g>
<!-- $(MAKEFILES_RECIPES)&#45;&gt;$(MAKEFILE2DOT_PLOT) -->
<g id="edge7" class="edge"><title>$(MAKEFILES_RECIPES)&#45;&gt;$(MAKEFILE2DOT_PLOT)</title>
<path fill="none" stroke="black" d="M1362.89,-33.7597C1322.29,-44.7747 1266.67,-59.8649 1223.83,-71.4901"/>
<polygon fill="black" stroke="black" points="1222.79,-68.1436 1214.06,-74.1401 1224.63,-74.8994 1222.79,-68.1436"/>
</g>
<!-- $(NTCIR_MATH_DENSITY_NTCIR11) -->
<g id="node10" class="node"><title>$(NTCIR_MATH_DENSITY_NTCIR11)</title>
<ellipse fill="none" stroke="black" cx="993.29" cy="-378" rx="159.472" ry="18"/>
<text text-anchor="middle" x="993.29" y="-374.3" font-family="Times,serif" font-size="14.00">$(NTCIR_MATH_DENSITY_NTCIR11)</text>
</g>
<!-- $(NTCIR_MATH_DENSITY_NTCIR11)&#45;&gt;$(RESULTS_NTCIR11) -->
<g id="edge45" class="edge"><title>$(NTCIR_MATH_DENSITY_NTCIR11)&#45;&gt;$(RESULTS_NTCIR11)</title>
<path fill="none" stroke="black" d="M1008.28,-396.151C1041.32,-433.966 1120.54,-524.62 1158.84,-568.449"/>
<polygon fill="black" stroke="black" points="1156.28,-570.837 1165.49,-576.065 1161.55,-566.231 1156.28,-570.837"/>
</g>
<!-- $(JUDGEMENTS_NTCIR10_CONVERTED) -->
<g id="node11" class="node"><title>$(JUDGEMENTS_NTCIR10_CONVERTED)</title>
<ellipse fill="none" stroke="black" cx="685.29" cy="-306" rx="176.269" ry="18"/>
<text text-anchor="middle" x="685.29" y="-302.3" font-family="Times,serif" font-size="14.00">$(JUDGEMENTS_NTCIR10_CONVERTED)</text>
</g>
<!-- $(JUDGEMENTS_NTCIR10_CONVERTED)&#45;&gt;$(NTCIR_MATH_DENSITY_ALL) -->
<g id="edge15" class="edge"><title>$(JUDGEMENTS_NTCIR10_CONVERTED)&#45;&gt;$(NTCIR_MATH_DENSITY_ALL)</title>
<path fill="none" stroke="black" d="M682.57,-324.303C681.358,-332.017 679.901,-341.288 678.55,-349.888"/>
<polygon fill="black" stroke="black" points="675.072,-349.474 676.977,-359.896 681.987,-350.56 675.072,-349.474"/>
</g>
<!-- $(JUDGEMENTS_NTCIR10_CONVERTED)&#45;&gt;$(NTCIR_MATH_DENSITY_NTCIR11) -->
<g id="edge8" class="edge"><title>$(JUDGEMENTS_NTCIR10_CONVERTED)&#45;&gt;$(NTCIR_MATH_DENSITY_NTCIR11)</title>
<path fill="none" stroke="black" d="M754.027,-322.622C802.063,-333.539 866.26,-348.13 916.062,-359.448"/>
<polygon fill="black" stroke="black" points="915.295,-362.863 925.822,-361.666 916.846,-356.037 915.295,-362.863"/>
</g>
<!-- $(JUDGEMENTS_NTCIR12) -->
<g id="node12" class="node"><title>$(JUDGEMENTS_NTCIR12)</title>
<ellipse fill="none" stroke="black" cx="373.29" cy="-306" rx="118.079" ry="18"/>
<text text-anchor="middle" x="373.29" y="-302.3" font-family="Times,serif" font-size="14.00">$(JUDGEMENTS_NTCIR12)</text>
</g>
<!-- $(JUDGEMENTS_NTCIR12)&#45;&gt;$(NTCIR_MATH_DENSITY_ALL_WITHOUT_NTCIR10) -->
<g id="edge13" class="edge"><title>$(JUDGEMENTS_NTCIR12)&#45;&gt;$(NTCIR_MATH_DENSITY_ALL_WITHOUT_NTCIR10)</title>
<path fill="none" stroke="black" d="M352.471,-323.945C341.566,-332.821 328.039,-343.831 316.14,-353.517"/>
<polygon fill="black" stroke="black" points="313.76,-350.941 308.214,-359.968 318.179,-356.37 313.76,-350.941"/>
</g>
<!-- $(JUDGEMENTS_NTCIR12)&#45;&gt;$(NTCIR_MATH_DENSITY_ALL) -->
<g id="edge17" class="edge"><title>$(JUDGEMENTS_NTCIR12)&#45;&gt;$(NTCIR_MATH_DENSITY_ALL)</title>
<path fill="none" stroke="black" d="M435.292,-321.419C482.968,-332.507 549.021,-347.868 599.607,-359.632"/>
<polygon fill="black" stroke="black" points="598.975,-363.078 609.508,-361.934 600.56,-356.26 598.975,-363.078"/>
</g>
<!-- $(JUDGEMENTS_NTCIR12)&#45;&gt;$(NTCIR_MATH_DENSITY_NTCIR11) -->
<g id="edge9" class="edge"><title>$(JUDGEMENTS_NTCIR12)&#45;&gt;$(NTCIR_MATH_DENSITY_NTCIR11)</title>
<path fill="none" stroke="black" d="M457.96,-318.645C472.087,-320.499 486.597,-322.348 500.29,-324 569.492,-332.35 748.433,-351.346 870.575,-364.176"/>
<polygon fill="black" stroke="black" points="870.427,-367.68 880.738,-365.243 871.158,-360.718 870.427,-367.68"/>
</g>
<!-- $(DATASET_NTCIR11_12) -->
<g id="node13" class="node"><title>$(DATASET_NTCIR11_12)</title>
<ellipse fill="none" stroke="black" cx="993.29" cy="-306" rx="113.98" ry="18"/>
<text text-anchor="middle" x="993.29" y="-302.3" font-family="Times,serif" font-size="14.00">$(DATASET_NTCIR11_12)</text>
</g>
<!-- $(DATASET_NTCIR11_12)&#45;&gt;$(RESULTS_NTCIR11) -->
<g id="edge44" class="edge"><title>$(DATASET_NTCIR11_12)&#45;&gt;$(RESULTS_NTCIR11)</title>
<path fill="none" stroke="black" d="M1086.68,-316.332C1114.78,-323.855 1142.98,-337.047 1161.29,-360 1209.17,-420.029 1196.66,-518.588 1186.87,-565.941"/>
<polygon fill="black" stroke="black" points="1183.43,-565.251 1184.72,-575.768 1190.27,-566.746 1183.43,-565.251"/>
</g>
<!-- $(DATASET_NTCIR11_12)&#45;&gt;$(NTCIR_MATH_DENSITY_ALL_WITHOUT_NTCIR10) -->
<g id="edge14" class="edge"><title>$(DATASET_NTCIR11_12)&#45;&gt;$(NTCIR_MATH_DENSITY_ALL_WITHOUT_NTCIR10)</title>
<path fill="none" stroke="black" d="M912.639,-318.695C898.538,-320.583 883.997,-322.431 870.29,-324 729.742,-340.092 569.677,-354.354 452.87,-364.018"/>
<polygon fill="black" stroke="black" points="452.447,-360.541 442.768,-364.851 453.022,-367.517 452.447,-360.541"/>
</g>
<!-- $(DATASET_NTCIR11_12)&#45;&gt;$(NTCIR_MATH_DENSITY_ALL) -->
<g id="edge18" class="edge"><title>$(DATASET_NTCIR11_12)&#45;&gt;$(NTCIR_MATH_DENSITY_ALL)</title>
<path fill="none" stroke="black" d="M929.502,-320.997C878.408,-332.209 806.521,-347.984 752.057,-359.935"/>
<polygon fill="black" stroke="black" points="751.116,-356.558 742.099,-362.12 752.617,-363.395 751.116,-356.558"/>
</g>
<!-- $(DATASET_NTCIR11_12)&#45;&gt;$(NTCIR_MATH_DENSITY_NTCIR11) -->
<g id="edge10" class="edge"><title>$(DATASET_NTCIR11_12)&#45;&gt;$(NTCIR_MATH_DENSITY_NTCIR11)</title>
<path fill="none" stroke="black" d="M993.29,-324.303C993.29,-332.017 993.29,-341.288 993.29,-349.888"/>
<polygon fill="black" stroke="black" points="989.79,-349.896 993.29,-359.896 996.79,-349.896 989.79,-349.896"/>
</g>
<!-- $(INDEX_NTCIR11_12) -->
<g id="node21" class="node"><title>$(INDEX_NTCIR11_12)</title>
<ellipse fill="none" stroke="black" cx="1309.29" cy="-378" rx="100.983" ry="18"/>
<text text-anchor="middle" x="1309.29" y="-374.3" font-family="Times,serif" font-size="14.00">$(INDEX_NTCIR11_12)</text>
</g>
<!-- $(DATASET_NTCIR11_12)&#45;&gt;$(INDEX_NTCIR11_12) -->
<g id="edge28" class="edge"><title>$(DATASET_NTCIR11_12)&#45;&gt;$(INDEX_NTCIR11_12)</title>
<path fill="none" stroke="black" d="M1056.48,-320.997C1109.12,-332.66 1184.06,-349.259 1238.67,-361.357"/>
<polygon fill="black" stroke="black" points="1238.1,-364.816 1248.63,-363.562 1239.62,-357.982 1238.1,-364.816"/>
</g>
<!-- $(DATASET_NTCIR10_CONVERTED) -->
<g id="node14" class="node"><title>$(DATASET_NTCIR10_CONVERTED)</title>
<ellipse fill="none" stroke="black" cx="1283.29" cy="-306" rx="157.872" ry="18"/>
<text text-anchor="middle" x="1283.29" y="-302.3" font-family="Times,serif" font-size="14.00">$(DATASET_NTCIR10_CONVERTED)</text>
</g>
<!-- $(DATASET_NTCIR10_CONVERTED)&#45;&gt;$(NTCIR_MATH_DENSITY_ALL) -->
<g id="edge19" class="edge"><title>$(DATASET_NTCIR10_CONVERTED)&#45;&gt;$(NTCIR_MATH_DENSITY_ALL)</title>
<path fill="none" stroke="black" d="M1176.51,-319.273C1066.85,-331.878 896.914,-351.411 785.619,-364.204"/>
<polygon fill="black" stroke="black" points="784.906,-360.762 775.371,-365.381 785.705,-367.717 784.906,-360.762"/>
</g>
<!-- $(DATASET_NTCIR10_CONVERTED)&#45;&gt;$(NTCIR_MATH_DENSITY_NTCIR11) -->
<g id="edge11" class="edge"><title>$(DATASET_NTCIR10_CONVERTED)&#45;&gt;$(NTCIR_MATH_DENSITY_NTCIR11)</title>
<path fill="none" stroke="black" d="M1218.93,-322.535C1174.06,-333.365 1114.09,-347.841 1067.26,-359.146"/>
<polygon fill="black" stroke="black" points="1066.37,-355.759 1057.47,-361.508 1068.01,-362.564 1066.37,-355.759"/>
</g>
<!-- $(INDEX_NTCIR10) -->
<g id="node19" class="node"><title>$(INDEX_NTCIR10)</title>
<ellipse fill="none" stroke="black" cx="1515.29" cy="-378" rx="87.9851" ry="18"/>
<text text-anchor="middle" x="1515.29" y="-374.3" font-family="Times,serif" font-size="14.00">$(INDEX_NTCIR10)</text>
</g>
<!-- $(DATASET_NTCIR10_CONVERTED)&#45;&gt;$(INDEX_NTCIR10) -->
<g id="edge26" class="edge"><title>$(DATASET_NTCIR10_CONVERTED)&#45;&gt;$(INDEX_NTCIR10)</title>
<path fill="none" stroke="black" d="M1336.22,-322.972C1372.69,-333.973 1421.09,-348.578 1458.38,-359.829"/>
<polygon fill="black" stroke="black" points="1457.51,-363.222 1468.09,-362.76 1459.53,-356.52 1457.51,-363.222"/>
</g>
<!-- $(JUDGEMENTS_NTCIR11) -->
<g id="node15" class="node"><title>$(JUDGEMENTS_NTCIR11)</title>
<ellipse fill="none" stroke="black" cx="118.29" cy="-306" rx="118.079" ry="18"/>
<text text-anchor="middle" x="118.29" y="-302.3" font-family="Times,serif" font-size="14.00">$(JUDGEMENTS_NTCIR11)</text>
</g>
<!-- $(JUDGEMENTS_NTCIR11)&#45;&gt;$(RESULTS_NTCIR11) -->
<g id="edge42" class="edge"><title>$(JUDGEMENTS_NTCIR11)&#45;&gt;$(RESULTS_NTCIR11)</title>
<path fill="none" stroke="black" d="M86.466,-323.551C72.9952,-332.393 58.7201,-344.648 51.2895,-360 44.319,-374.402 40.994,-383.752 51.2895,-396 181.343,-550.712 816.016,-583.936 1072.47,-591.06"/>
<polygon fill="black" stroke="black" points="1072.46,-594.561 1082.55,-591.332 1072.64,-587.563 1072.46,-594.561"/>
</g>
<!-- $(JUDGEMENTS_NTCIR11)&#45;&gt;$(NTCIR_MATH_DENSITY_ALL_WITHOUT_NTCIR10) -->
<g id="edge12" class="edge"><title>$(JUDGEMENTS_NTCIR11)&#45;&gt;$(NTCIR_MATH_DENSITY_ALL_WITHOUT_NTCIR10)</title>
<path fill="none" stroke="black" d="M157.062,-323.059C180.911,-332.938 211.715,-345.697 237.376,-356.326"/>
<polygon fill="black" stroke="black" points="236.356,-359.691 246.934,-360.285 239.035,-353.224 236.356,-359.691"/>
</g>
<!-- $(JUDGEMENTS_NTCIR11)&#45;&gt;$(NTCIR_MATH_DENSITY_ALL) -->
<g id="edge16" class="edge"><title>$(JUDGEMENTS_NTCIR11)&#45;&gt;$(NTCIR_MATH_DENSITY_ALL)</title>
<path fill="none" stroke="black" d="M203.997,-318.489C218.123,-320.353 232.615,-322.245 246.29,-324 354.872,-337.933 479.036,-353.239 565.564,-363.805"/>
<polygon fill="black" stroke="black" points="565.311,-367.3 575.661,-365.038 566.159,-360.352 565.311,-367.3"/>
</g>
<!-- $(NTCIR10_MATH_CONVERTER) -->
<g id="node16" class="node"><title>$(NTCIR10_MATH_CONVERTER)</title>
<ellipse fill="none" stroke="black" cx="1067.29" cy="-234" rx="143.775" ry="18"/>
<text text-anchor="middle" x="1067.29" y="-230.3" font-family="Times,serif" font-size="14.00">$(NTCIR10_MATH_CONVERTER)</text>
</g>
<!-- $(NTCIR10_MATH_CONVERTER)&#45;&gt;$(JUDGEMENTS_NTCIR10_CONVERTED) -->
<g id="edge24" class="edge"><title>$(NTCIR10_MATH_CONVERTER)&#45;&gt;$(JUDGEMENTS_NTCIR10_CONVERTED)</title>
<path fill="none" stroke="black" d="M989.526,-249.25C928.026,-260.519 842.013,-276.281 777.127,-288.171"/>
<polygon fill="black" stroke="black" points="776.107,-284.8 766.902,-290.045 777.369,-291.685 776.107,-284.8"/>
</g>
<!-- $(NTCIR10_MATH_CONVERTER)&#45;&gt;$(DATASET_NTCIR10_CONVERTED) -->
<g id="edge21" class="edge"><title>$(NTCIR10_MATH_CONVERTER)&#45;&gt;$(DATASET_NTCIR10_CONVERTED)</title>
<path fill="none" stroke="black" d="M1116.57,-250.972C1148.42,-261.292 1190.05,-274.783 1223.74,-285.702"/>
<polygon fill="black" stroke="black" points="1222.88,-289.101 1233.47,-288.855 1225.04,-282.442 1222.88,-289.101"/>
</g>
<!-- $(DATASET_NTCIR10) -->
<g id="node17" class="node"><title>$(DATASET_NTCIR10)</title>
<ellipse fill="none" stroke="black" cx="805.29" cy="-234" rx="100.983" ry="18"/>
<text text-anchor="middle" x="805.29" y="-230.3" font-family="Times,serif" font-size="14.00">$(DATASET_NTCIR10)</text>
</g>
<!-- $(DATASET_NTCIR10)&#45;&gt;$(JUDGEMENTS_NTCIR10_CONVERTED) -->
<g id="edge22" class="edge"><title>$(DATASET_NTCIR10)&#45;&gt;$(JUDGEMENTS_NTCIR10_CONVERTED)</title>
<path fill="none" stroke="black" d="M777.155,-251.412C760.991,-260.841 740.481,-272.805 722.943,-283.035"/>
<polygon fill="black" stroke="black" points="720.956,-280.143 714.081,-288.205 724.483,-286.189 720.956,-280.143"/>
</g>
<!-- $(DATASET_NTCIR10)&#45;&gt;$(DATASET_NTCIR10_CONVERTED) -->
<g id="edge20" class="edge"><title>$(DATASET_NTCIR10)&#45;&gt;$(DATASET_NTCIR10_CONVERTED)</title>
<path fill="none" stroke="black" d="M878.267,-246.506C890.298,-248.367 902.641,-250.255 914.29,-252 1002.93,-265.277 1103.65,-279.7 1177.44,-290.143"/>
<polygon fill="black" stroke="black" points="1177.28,-293.654 1187.67,-291.589 1178.26,-286.723 1177.28,-293.654"/>
</g>
<!-- $(JUDGEMENTS_NTCIR10) -->
<g id="node18" class="node"><title>$(JUDGEMENTS_NTCIR10)</title>
<ellipse fill="none" stroke="black" cx="568.29" cy="-234" rx="118.079" ry="18"/>
<text text-anchor="middle" x="568.29" y="-230.3" font-family="Times,serif" font-size="14.00">$(JUDGEMENTS_NTCIR10)</text>
</g>
<!-- $(JUDGEMENTS_NTCIR10)&#45;&gt;$(JUDGEMENTS_NTCIR10_CONVERTED) -->
<g id="edge23" class="edge"><title>$(JUDGEMENTS_NTCIR10)&#45;&gt;$(JUDGEMENTS_NTCIR10_CONVERTED)</title>
<path fill="none" stroke="black" d="M596.017,-251.589C611.525,-260.868 631.067,-272.559 647.911,-282.637"/>
<polygon fill="black" stroke="black" points="646.57,-285.913 656.948,-288.044 650.164,-279.906 646.57,-285.913"/>
</g>
<!-- $(TOMCAT) -->
<g id="node29" class="node"><title>$(TOMCAT)</title>
<ellipse fill="none" stroke="black" cx="1401.29" cy="-450" rx="58.4896" ry="18"/>
<text text-anchor="middle" x="1401.29" y="-446.3" font-family="Times,serif" font-size="14.00">$(TOMCAT)</text>
</g>
<!-- $(INDEX_NTCIR10)&#45;&gt;$(TOMCAT) -->
<g id="edge48" class="edge"><title>$(INDEX_NTCIR10)&#45;&gt;$(TOMCAT)</title>
<path fill="none" stroke="black" d="M1488.85,-395.235C1472.83,-405.072 1452.24,-417.716 1435.05,-428.27"/>
<polygon fill="black" stroke="black" points="1433.1,-425.358 1426.41,-433.573 1436.77,-431.323 1433.1,-425.358"/>
</g>
<!-- $(MIAS) -->
<g id="node20" class="node"><title>$(MIAS)</title>
<ellipse fill="none" stroke="black" cx="1515.29" cy="-306" rx="43.5923" ry="18"/>
<text text-anchor="middle" x="1515.29" y="-302.3" font-family="Times,serif" font-size="14.00">$(MIAS)</text>
</g>
<!-- $(MIAS)&#45;&gt;$(INDEX_NTCIR10) -->
<g id="edge25" class="edge"><title>$(MIAS)&#45;&gt;$(INDEX_NTCIR10)</title>
<path fill="none" stroke="black" d="M1515.29,-324.303C1515.29,-332.017 1515.29,-341.288 1515.29,-349.888"/>
<polygon fill="black" stroke="black" points="1511.79,-349.896 1515.29,-359.896 1518.79,-349.896 1511.79,-349.896"/>
</g>
<!-- $(MIAS)&#45;&gt;$(INDEX_NTCIR11_12) -->
<g id="edge27" class="edge"><title>$(MIAS)&#45;&gt;$(INDEX_NTCIR11_12)</title>
<path fill="none" stroke="black" d="M1482.65,-318.092C1450.78,-328.921 1401.7,-345.598 1363.89,-358.448"/>
<polygon fill="black" stroke="black" points="1362.38,-355.263 1354.04,-361.794 1364.63,-361.891 1362.38,-355.263"/>
</g>
<!-- $(WEBMIAS) -->
<g id="node22" class="node"><title>$(WEBMIAS)</title>
<ellipse fill="none" stroke="black" cx="1684.29" cy="-378" rx="63.8893" ry="18"/>
<text text-anchor="middle" x="1684.29" y="-374.3" font-family="Times,serif" font-size="14.00">$(WEBMIAS)</text>
</g>
<!-- $(MIAS)&#45;&gt;$(WEBMIAS) -->
<g id="edge29" class="edge"><title>$(MIAS)&#45;&gt;$(WEBMIAS)</title>
<path fill="none" stroke="black" d="M1545.11,-319.353C1571.54,-330.297 1610.45,-346.417 1640.42,-358.831"/>
<polygon fill="black" stroke="black" points="1639.23,-362.126 1649.81,-362.719 1641.91,-355.659 1639.23,-362.126"/>
</g>
<!-- $(INDEX_NTCIR11_12)&#45;&gt;$(TOMCAT) -->
<g id="edge49" class="edge"><title>$(INDEX_NTCIR11_12)&#45;&gt;$(TOMCAT)</title>
<path fill="none" stroke="black" d="M1331.09,-395.589C1343.41,-404.964 1358.97,-416.802 1372.31,-426.949"/>
<polygon fill="black" stroke="black" points="1370.2,-429.742 1380.28,-433.012 1374.44,-424.171 1370.2,-429.742"/>
</g>
<!-- $(WEBMIAS)&#45;&gt;$(TOMCAT) -->
<g id="edge47" class="edge"><title>$(WEBMIAS)&#45;&gt;$(TOMCAT)</title>
<path fill="none" stroke="black" d="M1637.87,-390.481C1587.79,-402.87 1508.12,-422.576 1455.27,-435.648"/>
<polygon fill="black" stroke="black" points="1454.27,-432.291 1445.4,-438.09 1455.95,-439.086 1454.27,-432.291"/>
</g>
<!-- $(MAVEN) -->
<g id="node23" class="node"><title>$(MAVEN)</title>
<ellipse fill="none" stroke="black" cx="1583.29" cy="-90" rx="53.8905" ry="18"/>
<text text-anchor="middle" x="1583.29" y="-86.3" font-family="Times,serif" font-size="14.00">$(MAVEN)</text>
</g>
<!-- $(MAVEN)&#45;&gt;$(MIAS) -->
<g id="edge32" class="edge"><title>$(MAVEN)&#45;&gt;$(MIAS)</title>
<path fill="none" stroke="black" d="M1529.39,-91.6905C1446.18,-94.0264 1292.45,-103.819 1258.29,-144 1247.93,-156.19 1249.8,-166.436 1258.29,-180 1282.63,-218.908 1406.01,-266.862 1472.57,-290.468"/>
<polygon fill="black" stroke="black" points="1471.76,-293.891 1482.35,-293.906 1474.08,-287.288 1471.76,-293.891"/>
</g>
<!-- $(MAVEN)&#45;&gt;$(WEBMIAS) -->
<g id="edge30" class="edge"><title>$(MAVEN)&#45;&gt;$(WEBMIAS)</title>
<path fill="none" stroke="black" d="M1629.21,-99.4478C1654.52,-106.7 1683.85,-119.97 1699.29,-144 1740.64,-208.36 1712.87,-304.458 1695.42,-350.519"/>
<polygon fill="black" stroke="black" points="1692.06,-349.489 1691.67,-360.076 1698.58,-352.045 1692.06,-349.489"/>
</g>
<!-- $(MIASMATH) -->
<g id="node24" class="node"><title>$(MIASMATH)</title>
<ellipse fill="none" stroke="black" cx="1537.29" cy="-234" rx="69.5877" ry="18"/>
<text text-anchor="middle" x="1537.29" y="-230.3" font-family="Times,serif" font-size="14.00">$(MIASMATH)</text>
</g>
<!-- $(MAVEN)&#45;&gt;$(MIASMATH) -->
<g id="edge35" class="edge"><title>$(MAVEN)&#45;&gt;$(MIASMATH)</title>
<path fill="none" stroke="black" d="M1623.78,-101.925C1644.88,-109.899 1668.81,-123.065 1681.29,-144 1689.48,-157.744 1690.44,-166.877 1681.29,-180 1664.93,-203.449 1636.98,-216.552 1610.04,-223.862"/>
<polygon fill="black" stroke="black" points="1609.04,-220.502 1600.18,-226.302 1610.72,-227.297 1609.04,-220.502"/>
</g>
<!-- $(MATHMLCAN) -->
<g id="node25" class="node"><title>$(MATHMLCAN)</title>
<ellipse fill="none" stroke="black" cx="1346.29" cy="-162" rx="79.0865" ry="18"/>
<text text-anchor="middle" x="1346.29" y="-158.3" font-family="Times,serif" font-size="14.00">$(MATHMLCAN)</text>
</g>
<!-- $(MAVEN)&#45;&gt;$(MATHMLCAN) -->
<g id="edge36" class="edge"><title>$(MAVEN)&#45;&gt;$(MATHMLCAN)</title>
<path fill="none" stroke="black" d="M1544.15,-102.559C1505.53,-113.967 1446.09,-131.524 1402.43,-144.418"/>
<polygon fill="black" stroke="black" points="1401.41,-141.07 1392.81,-147.259 1403.39,-147.783 1401.41,-141.07"/>
</g>
<!-- $(MATHMLUNIFICATOR) -->
<g id="node26" class="node"><title>$(MATHMLUNIFICATOR)</title>
<ellipse fill="none" stroke="black" cx="1558.29" cy="-162" rx="114.28" ry="18"/>
<text text-anchor="middle" x="1558.29" y="-158.3" font-family="Times,serif" font-size="14.00">$(MATHMLUNIFICATOR)</text>
</g>
<!-- $(MAVEN)&#45;&gt;$(MATHMLUNIFICATOR) -->
<g id="edge37" class="edge"><title>$(MAVEN)&#45;&gt;$(MATHMLUNIFICATOR)</title>
<path fill="none" stroke="black" d="M1577.24,-107.945C1574.42,-115.824 1571.01,-125.383 1567.86,-134.206"/>
<polygon fill="black" stroke="black" points="1564.53,-133.13 1564.46,-143.725 1571.12,-135.484 1564.53,-133.13"/>
</g>
<!-- $(MIREVAL) -->
<g id="node27" class="node"><title>$(MIREVAL)</title>
<ellipse fill="none" stroke="black" cx="1619.29" cy="-450" rx="61.99" ry="18"/>
<text text-anchor="middle" x="1619.29" y="-446.3" font-family="Times,serif" font-size="14.00">$(MIREVAL)</text>
</g>
<!-- $(MAVEN)&#45;&gt;$(MIREVAL) -->
<g id="edge38" class="edge"><title>$(MAVEN)&#45;&gt;$(MIREVAL)</title>
<path fill="none" stroke="black" d="M1627.79,-100.252C1656.87,-108.064 1694.32,-121.647 1721.29,-144 1757.09,-173.669 1776.29,-186.501 1776.29,-233 1776.29,-233 1776.29,-233 1776.29,-307 1776.29,-347.447 1783.57,-365.253 1757.29,-396 1738.43,-418.067 1709.29,-430.981 1682.65,-438.522"/>
<polygon fill="black" stroke="black" points="1681.75,-435.139 1672.97,-441.064 1683.53,-441.909 1681.75,-435.139"/>
</g>
<!-- $(MIASMATH)&#45;&gt;$(MIAS) -->
<g id="edge31" class="edge"><title>$(MIASMATH)&#45;&gt;$(MIAS)</title>
<path fill="none" stroke="black" d="M1531.85,-252.303C1529.4,-260.102 1526.45,-269.491 1523.72,-278.171"/>
<polygon fill="black" stroke="black" points="1520.32,-277.306 1520.67,-287.896 1527,-279.405 1520.32,-277.306"/>
</g>
<!-- $(MATHMLCAN)&#45;&gt;$(MIASMATH) -->
<g id="edge33" class="edge"><title>$(MATHMLCAN)&#45;&gt;$(MIASMATH)</title>
<path fill="none" stroke="black" d="M1386.33,-177.674C1416.37,-188.683 1457.61,-203.797 1489.39,-215.446"/>
<polygon fill="black" stroke="black" points="1488.34,-218.787 1498.93,-218.942 1490.75,-212.215 1488.34,-218.787"/>
</g>
<!-- $(MATHMLUNIFICATOR)&#45;&gt;$(MIASMATH) -->
<g id="edge34" class="edge"><title>$(MATHMLUNIFICATOR)&#45;&gt;$(MIASMATH)</title>
<path fill="none" stroke="black" d="M1553.1,-180.303C1550.76,-188.102 1547.94,-197.491 1545.34,-206.171"/>
<polygon fill="black" stroke="black" points="1541.94,-205.312 1542.42,-215.896 1548.65,-207.323 1541.94,-205.312"/>
</g>
<!-- $(MIREVAL)&#45;&gt;$(RESULTS_NTCIR11) -->
<g id="edge40" class="edge"><title>$(MIREVAL)&#45;&gt;$(RESULTS_NTCIR11)</title>
<path fill="none" stroke="black" d="M1575.9,-462.846C1547.64,-471.692 1510.71,-485.453 1481.29,-504 1461.61,-516.408 1463.94,-529.285 1443.29,-540 1393.58,-565.792 1332.55,-579.048 1281.8,-585.854"/>
<polygon fill="black" stroke="black" points="1281.27,-582.393 1271.79,-587.131 1282.15,-589.337 1281.27,-582.393"/>
</g>
<!-- $(NTCIR_MIAS_SEARCH) -->
<g id="node28" class="node"><title>$(NTCIR_MIAS_SEARCH)</title>
<ellipse fill="none" stroke="black" cx="1321.29" cy="-522" rx="113.18" ry="18"/>
<text text-anchor="middle" x="1321.29" y="-518.3" font-family="Times,serif" font-size="14.00">$(NTCIR_MIAS_SEARCH)</text>
</g>
<!-- $(NTCIR_MIAS_SEARCH)&#45;&gt;$(RESULTS_NTCIR11) -->
<g id="edge43" class="edge"><title>$(NTCIR_MIAS_SEARCH)&#45;&gt;$(RESULTS_NTCIR11)</title>
<path fill="none" stroke="black" d="M1288.59,-539.235C1268.74,-549.086 1243.23,-561.753 1221.95,-572.317"/>
<polygon fill="black" stroke="black" points="1220.22,-569.271 1212.81,-576.853 1223.33,-575.541 1220.22,-569.271"/>
</g>
<!-- $(TOMCAT)&#45;&gt;$(NTCIR_MIAS_SEARCH) -->
<g id="edge39" class="edge"><title>$(TOMCAT)&#45;&gt;$(NTCIR_MIAS_SEARCH)</title>
<path fill="none" stroke="black" d="M1382.73,-467.235C1372.46,-476.227 1359.5,-487.564 1348.14,-497.507"/>
<polygon fill="black" stroke="black" points="1345.8,-494.903 1340.58,-504.122 1350.41,-500.171 1345.8,-494.903"/>
</g>
<!-- $(TOPICS_NTCIR11) -->
<g id="node30" class="node"><title>$(TOPICS_NTCIR11)</title>
<ellipse fill="none" stroke="black" cx="1581.29" cy="-522" rx="90.9839" ry="18"/>
<text text-anchor="middle" x="1581.29" y="-518.3" font-family="Times,serif" font-size="14.00">$(TOPICS_NTCIR11)</text>
</g>
<!-- $(TOPICS_NTCIR11)&#45;&gt;$(RESULTS_NTCIR11) -->
<g id="edge41" class="edge"><title>$(TOPICS_NTCIR11)&#45;&gt;$(RESULTS_NTCIR11)</title>
<path fill="none" stroke="black" d="M1515.52,-534.481C1445.24,-546.749 1333.86,-566.193 1258.98,-579.264"/>
<polygon fill="black" stroke="black" points="1258.37,-575.817 1249.12,-580.985 1259.57,-582.713 1258.37,-575.817"/>
</g>
<!-- $(JDK) -->
<g id="node31" class="node"><title>$(JDK)</title>
<ellipse fill="none" stroke="black" cx="1583.29" cy="-18" rx="37.0935" ry="18"/>
<text text-anchor="middle" x="1583.29" y="-14.3" font-family="Times,serif" font-size="14.00">$(JDK)</text>
</g>
<!-- $(JDK)&#45;&gt;$(MAVEN) -->
<g id="edge46" class="edge"><title>$(JDK)&#45;&gt;$(MAVEN)</title>
<path fill="none" stroke="black" d="M1583.29,-36.3034C1583.29,-44.0173 1583.29,-53.2875 1583.29,-61.8876"/>
<polygon fill="black" stroke="black" points="1579.79,-61.8956 1583.29,-71.8957 1586.79,-61.8957 1579.79,-61.8956"/>
</g>
</g>
</svg>
