<?xml version="1.0" encoding="UTF-8" standalone="no"?>
<!DOCTYPE svg PUBLIC "-//W3C//DTD SVG 1.1//EN"
 "http://www.w3.org/Graphics/SVG/1.1/DTD/svg11.dtd">
<!-- Generated by graphviz version 2.38.0 (20140413.2041)
 -->
<!-- Title: G Pages: 1 -->
<svg width="1765pt" height="692pt"
 viewBox="0.00 0.00 1764.98 692.00" xmlns="http://www.w3.org/2000/svg" xmlns:xlink="http://www.w3.org/1999/xlink">
<g id="graph0" class="graph" transform="scale(1 1) rotate(0) translate(4 688)">
<title>G</title>
<polygon fill="white" stroke="none" points="-4,4 -4,-688 1760.98,-688 1760.98,4 -4,4"/>
<!-- plot -->
<g id="node1" class="node"><title>plot</title>
<ellipse fill="none" stroke="black" cx="1138.29" cy="-162" rx="27" ry="18"/>
<text text-anchor="middle" x="1138.29" y="-158.3" font-family="Times,serif" font-size="14.00">plot</text>
</g>
<!-- $(MAKEFILE2DOT_PLOT) -->
<g id="node2" class="node"><title>$(MAKEFILE2DOT_PLOT)</title>
<ellipse fill="none" stroke="black" cx="1138.29" cy="-90" rx="114.28" ry="18"/>
<text text-anchor="middle" x="1138.29" y="-86.3" font-family="Times,serif" font-size="14.00">$(MAKEFILE2DOT_PLOT)</text>
</g>
<!-- $(MAKEFILE2DOT_PLOT)&#45;&gt;plot -->
<g id="edge1" class="edge"><title>$(MAKEFILE2DOT_PLOT)&#45;&gt;plot</title>
<path fill="none" stroke="black" d="M1138.29,-108.303C1138.29,-116.017 1138.29,-125.288 1138.29,-133.888"/>
<polygon fill="black" stroke="black" points="1134.79,-133.896 1138.29,-143.896 1141.79,-133.896 1134.79,-133.896"/>
</g>
<!-- results -->
<g id="node3" class="node"><title>results</title>
<ellipse fill="none" stroke="black" cx="679.29" cy="-666" rx="33.5952" ry="18"/>
<text text-anchor="middle" x="679.29" y="-662.3" font-family="Times,serif" font-size="14.00">results</text>
</g>
<!-- $(RESULTS_NTCIR11) -->
<g id="node4" class="node"><title>$(RESULTS_NTCIR11)</title>
<ellipse fill="none" stroke="black" cx="1185.29" cy="-594" rx="98.5829" ry="18"/>
<text text-anchor="middle" x="1185.29" y="-590.3" font-family="Times,serif" font-size="14.00">$(RESULTS_NTCIR11)</text>
</g>
<!-- $(RESULTS_NTCIR11)&#45;&gt;results -->
<g id="edge2" class="edge"><title>$(RESULTS_NTCIR11)&#45;&gt;results</title>
<path fill="none" stroke="black" d="M1109.26,-605.518C1001.34,-620.448 807.335,-647.286 721.787,-659.121"/>
<polygon fill="black" stroke="black" points="721.089,-655.684 711.663,-660.522 722.048,-662.618 721.089,-655.684"/>
</g>
<!-- $(NTCIR_MATH_DENSITY_ALL_WITHOUT_NTCIR10) -->
<g id="node5" class="node"><title>$(NTCIR_MATH_DENSITY_ALL_WITHOUT_NTCIR10)</title>
<ellipse fill="none" stroke="black" cx="292.29" cy="-378" rx="226.66" ry="18"/>
<text text-anchor="middle" x="292.29" y="-374.3" font-family="Times,serif" font-size="14.00">$(NTCIR_MATH_DENSITY_ALL_WITHOUT_NTCIR10)</text>
</g>
<!-- $(NTCIR_MATH_DENSITY_ALL_WITHOUT_NTCIR10)&#45;&gt;results -->
<g id="edge3" class="edge"><title>$(NTCIR_MATH_DENSITY_ALL_WITHOUT_NTCIR10)&#45;&gt;results</title>
<path fill="none" stroke="black" d="M315.339,-396.034C382.733,-445.839 579.243,-591.064 651.883,-644.746"/>
<polygon fill="black" stroke="black" points="649.988,-647.698 660.111,-650.826 654.148,-642.068 649.988,-647.698"/>
</g>
<!-- $(NTCIR_MATH_DENSITY_ALL) -->
<g id="node6" class="node"><title>$(NTCIR_MATH_DENSITY_ALL)</title>
<ellipse fill="none" stroke="black" cx="679.29" cy="-378" rx="141.875" ry="18"/>
<text text-anchor="middle" x="679.29" y="-374.3" font-family="Times,serif" font-size="14.00">$(NTCIR_MATH_DENSITY_ALL)</text>
</g>
<!-- $(NTCIR_MATH_DENSITY_ALL)&#45;&gt;results -->
<g id="edge4" class="edge"><title>$(NTCIR_MATH_DENSITY_ALL)&#45;&gt;results</title>
<path fill="none" stroke="black" d="M679.29,-396.034C679.29,-443.709 679.29,-578.815 679.29,-637.37"/>
<polygon fill="black" stroke="black" points="675.79,-637.694 679.29,-647.694 682.79,-637.694 675.79,-637.694"/>
</g>
<!-- $(MAKEFILE2DOT) -->
<g id="node7" class="node"><title>$(MAKEFILE2DOT)</title>
<ellipse fill="none" stroke="black" cx="902.29" cy="-18" rx="88.2844" ry="18"/>
<text text-anchor="middle" x="902.29" y="-14.3" font-family="Times,serif" font-size="14.00">$(MAKEFILE2DOT)</text>
</g>
<!-- $(MAKEFILE2DOT)&#45;&gt;$(MAKEFILE2DOT_PLOT) -->
<g id="edge5" class="edge"><title>$(MAKEFILE2DOT)&#45;&gt;$(MAKEFILE2DOT_PLOT)</title>
<path fill="none" stroke="black" d="M950.048,-33.1655C986.676,-44.03 1037.5,-59.1055 1077.11,-70.8534"/>
<polygon fill="black" stroke="black" points="1076.34,-74.2756 1086.92,-73.7638 1078.33,-67.5646 1076.34,-74.2756"/>
</g>
<!-- $(MAKEFILES_DEFINITIONS) -->
<g id="node8" class="node"><title>$(MAKEFILES_DEFINITIONS)</title>
<ellipse fill="none" stroke="black" cx="1138.29" cy="-18" rx="129.977" ry="18"/>
<text text-anchor="middle" x="1138.29" y="-14.3" font-family="Times,serif" font-size="14.00">$(MAKEFILES_DEFINITIONS)</text>
</g>
<!-- $(MAKEFILES_DEFINITIONS)&#45;&gt;$(MAKEFILE2DOT_PLOT) -->
<g id="edge6" class="edge"><title>$(MAKEFILES_DEFINITIONS)&#45;&gt;$(MAKEFILE2DOT_PLOT)</title>
<path fill="none" stroke="black" d="M1138.29,-36.3034C1138.29,-44.0173 1138.29,-53.2875 1138.29,-61.8876"/>
<polygon fill="black" stroke="black" points="1134.79,-61.8956 1138.29,-71.8957 1141.79,-61.8957 1134.79,-61.8956"/>
</g>
<!-- $(MAKEFILES_RECIPES) -->
<g id="node9" class="node"><title>$(MAKEFILES_RECIPES)</title>
<ellipse fill="none" stroke="black" cx="1396.29" cy="-18" rx="110.48" ry="18"/>
<text text-anchor="middle" x="1396.29" y="-14.3" font-family="Times,serif" font-size="14.00">$(MAKEFILES_RECIPES)</text>
</g>
<!-- $(MAKEFILES_RECIPES)&#45;&gt;$(MAKEFILE2DOT_PLOT) -->
<g id="edge7" class="edge"><title>$(MAKEFILES_RECIPES)&#45;&gt;$(MAKEFILE2DOT_PLOT)</title>
<path fill="none" stroke="black" d="M1341.89,-33.7597C1301.29,-44.7747 1245.67,-59.8649 1202.83,-71.4901"/>
<polygon fill="black" stroke="black" points="1201.79,-68.1436 1193.06,-74.1401 1203.63,-74.8994 1201.79,-68.1436"/>
</g>
<!-- $(NTCIR_MATH_DENSITY_NTCIR11) -->
<g id="node10" class="node"><title>$(NTCIR_MATH_DENSITY_NTCIR11)</title>
<ellipse fill="none" stroke="black" cx="998.29" cy="-378" rx="159.472" ry="18"/>
<text text-anchor="middle" x="998.29" y="-374.3" font-family="Times,serif" font-size="14.00">$(NTCIR_MATH_DENSITY_NTCIR11)</text>
</g>
<!-- $(NTCIR_MATH_DENSITY_NTCIR11)&#45;&gt;$(RESULTS_NTCIR11) -->
<g id="edge45" class="edge"><title>$(NTCIR_MATH_DENSITY_NTCIR11)&#45;&gt;$(RESULTS_NTCIR11)</title>
<path fill="none" stroke="black" d="M1013.28,-396.151C1046.32,-433.966 1125.54,-524.62 1163.84,-568.449"/>
<polygon fill="black" stroke="black" points="1161.28,-570.837 1170.49,-576.065 1166.55,-566.231 1161.28,-570.837"/>
</g>
<!-- $(JUDGEMENTS_NTCIR10_CONVERTED) -->
<g id="node11" class="node"><title>$(JUDGEMENTS_NTCIR10_CONVERTED)</title>
<ellipse fill="none" stroke="black" cx="685.29" cy="-306" rx="176.269" ry="18"/>
<text text-anchor="middle" x="685.29" y="-302.3" font-family="Times,serif" font-size="14.00">$(JUDGEMENTS_NTCIR10_CONVERTED)</text>
</g>
<!-- $(JUDGEMENTS_NTCIR10_CONVERTED)&#45;&gt;$(NTCIR_MATH_DENSITY_ALL) -->
<g id="edge15" class="edge"><title>$(JUDGEMENTS_NTCIR10_CONVERTED)&#45;&gt;$(NTCIR_MATH_DENSITY_ALL)</title>
<path fill="none" stroke="black" d="M683.806,-324.303C683.145,-332.017 682.351,-341.288 681.613,-349.888"/>
<polygon fill="black" stroke="black" points="678.122,-349.633 680.756,-359.896 685.097,-350.231 678.122,-349.633"/>
</g>
<!-- $(JUDGEMENTS_NTCIR10_CONVERTED)&#45;&gt;$(NTCIR_MATH_DENSITY_NTCIR11) -->
<g id="edge8" class="edge"><title>$(JUDGEMENTS_NTCIR10_CONVERTED)&#45;&gt;$(NTCIR_MATH_DENSITY_NTCIR11)</title>
<path fill="none" stroke="black" d="M755.143,-322.622C804.043,-333.558 869.423,-348.18 920.071,-359.507"/>
<polygon fill="black" stroke="black" points="919.472,-362.96 929.995,-361.726 921,-356.128 919.472,-362.96"/>
</g>
<!-- $(JUDGEMENTS_NTCIR12) -->
<g id="node12" class="node"><title>$(JUDGEMENTS_NTCIR12)</title>
<ellipse fill="none" stroke="black" cx="373.29" cy="-306" rx="118.079" ry="18"/>
<text text-anchor="middle" x="373.29" y="-302.3" font-family="Times,serif" font-size="14.00">$(JUDGEMENTS_NTCIR12)</text>
</g>
<!-- $(JUDGEMENTS_NTCIR12)&#45;&gt;$(NTCIR_MATH_DENSITY_ALL_WITHOUT_NTCIR10) -->
<g id="edge13" class="edge"><title>$(JUDGEMENTS_NTCIR12)&#45;&gt;$(NTCIR_MATH_DENSITY_ALL_WITHOUT_NTCIR10)</title>
<path fill="none" stroke="black" d="M353.682,-323.945C343.509,-332.736 330.915,-343.62 319.786,-353.237"/>
<polygon fill="black" stroke="black" points="317.275,-350.782 311.998,-359.968 321.852,-356.078 317.275,-350.782"/>
</g>
<!-- $(JUDGEMENTS_NTCIR12)&#45;&gt;$(NTCIR_MATH_DENSITY_ALL) -->
<g id="edge17" class="edge"><title>$(JUDGEMENTS_NTCIR12)&#45;&gt;$(NTCIR_MATH_DENSITY_ALL)</title>
<path fill="none" stroke="black" d="M435.952,-321.334C484.656,-332.476 552.389,-347.971 604.031,-359.784"/>
<polygon fill="black" stroke="black" points="603.277,-363.202 613.805,-362.02 604.838,-356.378 603.277,-363.202"/>
</g>
<!-- $(JUDGEMENTS_NTCIR12)&#45;&gt;$(NTCIR_MATH_DENSITY_NTCIR11) -->
<g id="edge9" class="edge"><title>$(JUDGEMENTS_NTCIR12)&#45;&gt;$(NTCIR_MATH_DENSITY_NTCIR11)</title>
<path fill="none" stroke="black" d="M457.958,-318.658C472.086,-320.51 486.596,-322.355 500.29,-324 570.296,-332.409 751.49,-351.437 874.885,-364.253"/>
<polygon fill="black" stroke="black" points="874.843,-367.767 885.151,-365.319 875.566,-360.805 874.843,-367.767"/>
</g>
<!-- $(DATASET_NTCIR11_12) -->
<g id="node13" class="node"><title>$(DATASET_NTCIR11_12)</title>
<ellipse fill="none" stroke="black" cx="993.29" cy="-306" rx="113.98" ry="18"/>
<text text-anchor="middle" x="993.29" y="-302.3" font-family="Times,serif" font-size="14.00">$(DATASET_NTCIR11_12)</text>
</g>
<!-- $(DATASET_NTCIR11_12)&#45;&gt;$(RESULTS_NTCIR11) -->
<g id="edge44" class="edge"><title>$(DATASET_NTCIR11_12)&#45;&gt;$(RESULTS_NTCIR11)</title>
<path fill="none" stroke="black" d="M1089.4,-315.695C1118.33,-323.176 1147.39,-336.503 1166.29,-360 1214.42,-419.829 1201.79,-518.483 1191.92,-565.901"/>
<polygon fill="black" stroke="black" points="1188.48,-565.222 1189.75,-575.741 1195.32,-566.726 1188.48,-565.222"/>
</g>
<!-- $(DATASET_NTCIR11_12)&#45;&gt;$(NTCIR_MATH_DENSITY_ALL_WITHOUT_NTCIR10) -->
<g id="edge14" class="edge"><title>$(DATASET_NTCIR11_12)&#45;&gt;$(NTCIR_MATH_DENSITY_ALL_WITHOUT_NTCIR10)</title>
<path fill="none" stroke="black" d="M912.307,-318.731C898.309,-320.604 883.889,-322.438 870.29,-324 731.065,-339.996 572.529,-354.253 456.751,-363.941"/>
<polygon fill="black" stroke="black" points="456.412,-360.457 446.738,-364.776 456.994,-367.433 456.412,-360.457"/>
</g>
<!-- $(DATASET_NTCIR11_12)&#45;&gt;$(NTCIR_MATH_DENSITY_ALL) -->
<g id="edge18" class="edge"><title>$(DATASET_NTCIR11_12)&#45;&gt;$(NTCIR_MATH_DENSITY_ALL)</title>
<path fill="none" stroke="black" d="M930.125,-321.081C879.883,-332.282 809.392,-347.996 755.926,-359.915"/>
<polygon fill="black" stroke="black" points="755.148,-356.503 746.15,-362.095 756.672,-363.335 755.148,-356.503"/>
</g>
<!-- $(DATASET_NTCIR11_12)&#45;&gt;$(NTCIR_MATH_DENSITY_NTCIR11) -->
<g id="edge10" class="edge"><title>$(DATASET_NTCIR11_12)&#45;&gt;$(NTCIR_MATH_DENSITY_NTCIR11)</title>
<path fill="none" stroke="black" d="M994.525,-324.303C995.076,-332.017 995.739,-341.288 996.353,-349.888"/>
<polygon fill="black" stroke="black" points="992.864,-350.17 997.068,-359.896 999.846,-349.672 992.864,-350.17"/>
</g>
<!-- $(INDEX_NTCIR12) -->
<g id="node21" class="node"><title>$(INDEX_NTCIR12)</title>
<ellipse fill="none" stroke="black" cx="1301.29" cy="-378" rx="87.9851" ry="18"/>
<text text-anchor="middle" x="1301.29" y="-374.3" font-family="Times,serif" font-size="14.00">$(INDEX_NTCIR12)</text>
</g>
<!-- $(DATASET_NTCIR11_12)&#45;&gt;$(INDEX_NTCIR12) -->
<g id="edge28" class="edge"><title>$(DATASET_NTCIR11_12)&#45;&gt;$(INDEX_NTCIR12)</title>
<path fill="none" stroke="black" d="M1055.62,-321.166C1107.64,-332.988 1181.59,-349.796 1234.75,-361.878"/>
<polygon fill="black" stroke="black" points="1234.23,-365.349 1244.76,-364.152 1235.78,-358.523 1234.23,-365.349"/>
</g>
<!-- $(DATASET_NTCIR10_CONVERTED) -->
<g id="node14" class="node"><title>$(DATASET_NTCIR10_CONVERTED)</title>
<ellipse fill="none" stroke="black" cx="1283.29" cy="-306" rx="157.872" ry="18"/>
<text text-anchor="middle" x="1283.29" y="-302.3" font-family="Times,serif" font-size="14.00">$(DATASET_NTCIR10_CONVERTED)</text>
</g>
<!-- $(DATASET_NTCIR10_CONVERTED)&#45;&gt;$(NTCIR_MATH_DENSITY_ALL) -->
<g id="edge19" class="edge"><title>$(DATASET_NTCIR10_CONVERTED)&#45;&gt;$(NTCIR_MATH_DENSITY_ALL)</title>
<path fill="none" stroke="black" d="M1176.7,-319.353C1068.16,-331.933 900.6,-351.351 790.442,-364.118"/>
<polygon fill="black" stroke="black" points="789.827,-360.666 780.296,-365.294 790.633,-367.619 789.827,-360.666"/>
</g>
<!-- $(DATASET_NTCIR10_CONVERTED)&#45;&gt;$(NTCIR_MATH_DENSITY_NTCIR11) -->
<g id="edge11" class="edge"><title>$(DATASET_NTCIR10_CONVERTED)&#45;&gt;$(NTCIR_MATH_DENSITY_NTCIR11)</title>
<path fill="none" stroke="black" d="M1220.04,-322.535C1176.19,-333.305 1117.66,-347.68 1071.75,-358.957"/>
<polygon fill="black" stroke="black" points="1070.73,-355.603 1061.86,-361.387 1072.4,-362.401 1070.73,-355.603"/>
</g>
<!-- $(INDEX_NTCIR10) -->
<g id="node19" class="node"><title>$(INDEX_NTCIR10)</title>
<ellipse fill="none" stroke="black" cx="1494.29" cy="-378" rx="87.9851" ry="18"/>
<text text-anchor="middle" x="1494.29" y="-374.3" font-family="Times,serif" font-size="14.00">$(INDEX_NTCIR10)</text>
</g>
<!-- $(DATASET_NTCIR10_CONVERTED)&#45;&gt;$(INDEX_NTCIR10) -->
<g id="edge26" class="edge"><title>$(DATASET_NTCIR10_CONVERTED)&#45;&gt;$(INDEX_NTCIR10)</title>
<path fill="none" stroke="black" d="M1331.96,-323.147C1364.42,-333.915 1407.1,-348.075 1440.55,-359.173"/>
<polygon fill="black" stroke="black" points="1439.58,-362.537 1450.17,-362.364 1441.78,-355.893 1439.58,-362.537"/>
</g>
<!-- $(JUDGEMENTS_NTCIR11) -->
<g id="node15" class="node"><title>$(JUDGEMENTS_NTCIR11)</title>
<ellipse fill="none" stroke="black" cx="118.29" cy="-306" rx="118.079" ry="18"/>
<text text-anchor="middle" x="118.29" y="-302.3" font-family="Times,serif" font-size="14.00">$(JUDGEMENTS_NTCIR11)</text>
</g>
<!-- $(JUDGEMENTS_NTCIR11)&#45;&gt;$(RESULTS_NTCIR11) -->
<g id="edge42" class="edge"><title>$(JUDGEMENTS_NTCIR11)&#45;&gt;$(RESULTS_NTCIR11)</title>
<path fill="none" stroke="black" d="M92.7776,-323.727C67.8316,-342.119 36.2962,-372.216 56.2895,-396 186.343,-550.712 821.016,-583.936 1077.47,-591.06"/>
<polygon fill="black" stroke="black" points="1077.46,-594.561 1087.55,-591.332 1077.64,-587.563 1077.46,-594.561"/>
</g>
<!-- $(JUDGEMENTS_NTCIR11)&#45;&gt;$(NTCIR_MATH_DENSITY_ALL_WITHOUT_NTCIR10) -->
<g id="edge12" class="edge"><title>$(JUDGEMENTS_NTCIR11)&#45;&gt;$(NTCIR_MATH_DENSITY_ALL_WITHOUT_NTCIR10)</title>
<path fill="none" stroke="black" d="M158.209,-323.059C182.872,-332.981 214.759,-345.809 241.248,-356.466"/>
<polygon fill="black" stroke="black" points="240.156,-359.799 250.74,-360.285 242.769,-353.305 240.156,-359.799"/>
</g>
<!-- $(JUDGEMENTS_NTCIR11)&#45;&gt;$(NTCIR_MATH_DENSITY_ALL) -->
<g id="edge16" class="edge"><title>$(JUDGEMENTS_NTCIR11)&#45;&gt;$(NTCIR_MATH_DENSITY_ALL)</title>
<path fill="none" stroke="black" d="M203.994,-318.506C218.122,-320.367 232.614,-322.255 246.29,-324 356.424,-338.054 482.416,-353.392 569.987,-363.935"/>
<polygon fill="black" stroke="black" points="569.591,-367.413 579.937,-365.132 570.427,-360.463 569.591,-367.413"/>
</g>
<!-- $(NTCIR10_MATH_CONVERTER) -->
<g id="node16" class="node"><title>$(NTCIR10_MATH_CONVERTER)</title>
<ellipse fill="none" stroke="black" cx="1046.29" cy="-234" rx="143.775" ry="18"/>
<text text-anchor="middle" x="1046.29" y="-230.3" font-family="Times,serif" font-size="14.00">$(NTCIR10_MATH_CONVERTER)</text>
</g>
<!-- $(NTCIR10_MATH_CONVERTER)&#45;&gt;$(JUDGEMENTS_NTCIR10_CONVERTED) -->
<g id="edge24" class="edge"><title>$(NTCIR10_MATH_CONVERTER)&#45;&gt;$(JUDGEMENTS_NTCIR10_CONVERTED)</title>
<path fill="none" stroke="black" d="M971.928,-249.419C914.348,-260.584 834.418,-276.083 773.588,-287.878"/>
<polygon fill="black" stroke="black" points="772.765,-284.473 763.614,-289.812 774.097,-291.345 772.765,-284.473"/>
</g>
<!-- $(NTCIR10_MATH_CONVERTER)&#45;&gt;$(DATASET_NTCIR10_CONVERTED) -->
<g id="edge21" class="edge"><title>$(NTCIR10_MATH_CONVERTER)&#45;&gt;$(DATASET_NTCIR10_CONVERTED)</title>
<path fill="none" stroke="black" d="M1099.77,-250.797C1135.24,-261.272 1181.96,-275.072 1219.39,-286.125"/>
<polygon fill="black" stroke="black" points="1218.6,-289.543 1229.18,-289.019 1220.58,-282.829 1218.6,-289.543"/>
</g>
<!-- $(DATASET_NTCIR10) -->
<g id="node17" class="node"><title>$(DATASET_NTCIR10)</title>
<ellipse fill="none" stroke="black" cx="784.29" cy="-234" rx="100.983" ry="18"/>
<text text-anchor="middle" x="784.29" y="-230.3" font-family="Times,serif" font-size="14.00">$(DATASET_NTCIR10)</text>
</g>
<!-- $(DATASET_NTCIR10)&#45;&gt;$(JUDGEMENTS_NTCIR10_CONVERTED) -->
<g id="edge22" class="edge"><title>$(DATASET_NTCIR10)&#45;&gt;$(JUDGEMENTS_NTCIR10_CONVERTED)</title>
<path fill="none" stroke="black" d="M760.828,-251.589C747.948,-260.696 731.781,-272.127 717.711,-282.075"/>
<polygon fill="black" stroke="black" points="715.415,-279.413 709.27,-288.044 719.456,-285.128 715.415,-279.413"/>
</g>
<!-- $(DATASET_NTCIR10)&#45;&gt;$(DATASET_NTCIR10_CONVERTED) -->
<g id="edge20" class="edge"><title>$(DATASET_NTCIR10)&#45;&gt;$(DATASET_NTCIR10_CONVERTED)</title>
<path fill="none" stroke="black" d="M856.963,-246.538C869.087,-248.404 881.539,-250.285 893.29,-252 987.603,-265.762 1094.92,-280.262 1173.08,-290.61"/>
<polygon fill="black" stroke="black" points="1173.05,-294.137 1183.42,-291.978 1173.97,-287.197 1173.05,-294.137"/>
</g>
<!-- $(JUDGEMENTS_NTCIR10) -->
<g id="node18" class="node"><title>$(JUDGEMENTS_NTCIR10)</title>
<ellipse fill="none" stroke="black" cx="547.29" cy="-234" rx="118.079" ry="18"/>
<text text-anchor="middle" x="547.29" y="-230.3" font-family="Times,serif" font-size="14.00">$(JUDGEMENTS_NTCIR10)</text>
</g>
<!-- $(JUDGEMENTS_NTCIR10)&#45;&gt;$(JUDGEMENTS_NTCIR10_CONVERTED) -->
<g id="edge23" class="edge"><title>$(JUDGEMENTS_NTCIR10)&#45;&gt;$(JUDGEMENTS_NTCIR10_CONVERTED)</title>
<path fill="none" stroke="black" d="M579.644,-251.412C598.574,-261.014 622.686,-273.245 643.095,-283.597"/>
<polygon fill="black" stroke="black" points="641.677,-286.802 652.179,-288.205 644.844,-280.56 641.677,-286.802"/>
</g>
<!-- $(TOMCAT) -->
<g id="node29" class="node"><title>$(TOMCAT)</title>
<ellipse fill="none" stroke="black" cx="1399.29" cy="-450" rx="58.4896" ry="18"/>
<text text-anchor="middle" x="1399.29" y="-446.3" font-family="Times,serif" font-size="14.00">$(TOMCAT)</text>
</g>
<!-- $(INDEX_NTCIR10)&#45;&gt;$(TOMCAT) -->
<g id="edge48" class="edge"><title>$(INDEX_NTCIR10)&#45;&gt;$(TOMCAT)</title>
<path fill="none" stroke="black" d="M1471.78,-395.589C1459.05,-404.964 1442.99,-416.802 1429.22,-426.949"/>
<polygon fill="black" stroke="black" points="1426.96,-424.262 1420.99,-433.012 1431.11,-429.898 1426.96,-424.262"/>
</g>
<!-- $(MIAS) -->
<g id="node20" class="node"><title>$(MIAS)</title>
<ellipse fill="none" stroke="black" cx="1502.29" cy="-306" rx="43.5923" ry="18"/>
<text text-anchor="middle" x="1502.29" y="-302.3" font-family="Times,serif" font-size="14.00">$(MIAS)</text>
</g>
<!-- $(MIAS)&#45;&gt;$(INDEX_NTCIR10) -->
<g id="edge25" class="edge"><title>$(MIAS)&#45;&gt;$(INDEX_NTCIR10)</title>
<path fill="none" stroke="black" d="M1500.31,-324.303C1499.43,-332.017 1498.37,-341.288 1497.39,-349.888"/>
<polygon fill="black" stroke="black" points="1493.9,-349.563 1496.24,-359.896 1500.86,-350.358 1493.9,-349.563"/>
</g>
<!-- $(MIAS)&#45;&gt;$(INDEX_NTCIR12) -->
<g id="edge27" class="edge"><title>$(MIAS)&#45;&gt;$(INDEX_NTCIR12)</title>
<path fill="none" stroke="black" d="M1470,-318.247C1438.62,-329.174 1390.45,-345.949 1353.6,-358.781"/>
<polygon fill="black" stroke="black" points="1352.31,-355.526 1344.02,-362.12 1354.61,-362.136 1352.31,-355.526"/>
</g>
<!-- $(WEBMIAS) -->
<g id="node22" class="node"><title>$(WEBMIAS)</title>
<ellipse fill="none" stroke="black" cx="1663.29" cy="-378" rx="63.8893" ry="18"/>
<text text-anchor="middle" x="1663.29" y="-374.3" font-family="Times,serif" font-size="14.00">$(WEBMIAS)</text>
</g>
<!-- $(MIAS)&#45;&gt;$(WEBMIAS) -->
<g id="edge29" class="edge"><title>$(MIAS)&#45;&gt;$(WEBMIAS)</title>
<path fill="none" stroke="black" d="M1531.07,-319.515C1556.02,-330.361 1592.46,-346.204 1620.77,-358.513"/>
<polygon fill="black" stroke="black" points="1619.46,-361.762 1630.03,-362.539 1622.25,-355.342 1619.46,-361.762"/>
</g>
<!-- $(INDEX_NTCIR12)&#45;&gt;$(TOMCAT) -->
<g id="edge49" class="edge"><title>$(INDEX_NTCIR12)&#45;&gt;$(TOMCAT)</title>
<path fill="none" stroke="black" d="M1324.51,-395.589C1337.73,-405.031 1354.45,-416.971 1368.72,-427.166"/>
<polygon fill="black" stroke="black" points="1367.07,-430.287 1377.24,-433.251 1371.14,-424.591 1367.07,-430.287"/>
</g>
<!-- $(WEBMIAS)&#45;&gt;$(TOMCAT) -->
<g id="edge47" class="edge"><title>$(WEBMIAS)&#45;&gt;$(TOMCAT)</title>
<path fill="none" stroke="black" d="M1618.51,-390.875C1572.4,-403.099 1500.6,-422.138 1451.84,-435.067"/>
<polygon fill="black" stroke="black" points="1450.87,-431.702 1442.1,-437.648 1452.67,-438.468 1450.87,-431.702"/>
</g>
<!-- $(MAVEN) -->
<g id="node23" class="node"><title>$(MAVEN)</title>
<ellipse fill="none" stroke="black" cx="1562.29" cy="-90" rx="53.8905" ry="18"/>
<text text-anchor="middle" x="1562.29" y="-86.3" font-family="Times,serif" font-size="14.00">$(MAVEN)</text>
</g>
<!-- $(MAVEN)&#45;&gt;$(MIAS) -->
<g id="edge32" class="edge"><title>$(MAVEN)&#45;&gt;$(MIAS)</title>
<path fill="none" stroke="black" d="M1508.39,-91.6905C1425.18,-94.0264 1271.45,-103.819 1237.29,-144 1226.93,-156.19 1228.72,-166.487 1237.29,-180 1262.6,-219.925 1390.84,-267.765 1459.21,-290.982"/>
<polygon fill="black" stroke="black" points="1458.25,-294.352 1468.84,-294.226 1460.48,-287.718 1458.25,-294.352"/>
</g>
<!-- $(MAVEN)&#45;&gt;$(WEBMIAS) -->
<g id="edge30" class="edge"><title>$(MAVEN)&#45;&gt;$(WEBMIAS)</title>
<path fill="none" stroke="black" d="M1608.21,-99.4478C1633.52,-106.7 1662.85,-119.97 1678.29,-144 1719.64,-208.36 1691.87,-304.458 1674.42,-350.519"/>
<polygon fill="black" stroke="black" points="1671.06,-349.489 1670.67,-360.076 1677.58,-352.045 1671.06,-349.489"/>
</g>
<!-- $(MIASMATH) -->
<g id="node24" class="node"><title>$(MIASMATH)</title>
<ellipse fill="none" stroke="black" cx="1520.29" cy="-234" rx="69.5877" ry="18"/>
<text text-anchor="middle" x="1520.29" y="-230.3" font-family="Times,serif" font-size="14.00">$(MIASMATH)</text>
</g>
<!-- $(MAVEN)&#45;&gt;$(MIASMATH) -->
<g id="edge35" class="edge"><title>$(MAVEN)&#45;&gt;$(MIASMATH)</title>
<path fill="none" stroke="black" d="M1602.78,-101.925C1623.88,-109.899 1647.81,-123.065 1660.29,-144 1668.48,-157.744 1669.38,-166.835 1660.29,-180 1644.64,-202.659 1617.96,-215.641 1592.06,-223.074"/>
<polygon fill="black" stroke="black" points="1590.98,-219.738 1582.2,-225.66 1592.76,-226.509 1590.98,-219.738"/>
</g>
<!-- $(MATHMLCAN) -->
<g id="node25" class="node"><title>$(MATHMLCAN)</title>
<ellipse fill="none" stroke="black" cx="1325.29" cy="-162" rx="79.0865" ry="18"/>
<text text-anchor="middle" x="1325.29" y="-158.3" font-family="Times,serif" font-size="14.00">$(MATHMLCAN)</text>
</g>
<!-- $(MAVEN)&#45;&gt;$(MATHMLCAN) -->
<g id="edge36" class="edge"><title>$(MAVEN)&#45;&gt;$(MATHMLCAN)</title>
<path fill="none" stroke="black" d="M1523.15,-102.559C1484.53,-113.967 1425.09,-131.524 1381.43,-144.418"/>
<polygon fill="black" stroke="black" points="1380.41,-141.07 1371.81,-147.259 1382.39,-147.783 1380.41,-141.07"/>
</g>
<!-- $(MATHMLUNIFICATOR) -->
<g id="node26" class="node"><title>$(MATHMLUNIFICATOR)</title>
<ellipse fill="none" stroke="black" cx="1537.29" cy="-162" rx="114.28" ry="18"/>
<text text-anchor="middle" x="1537.29" y="-158.3" font-family="Times,serif" font-size="14.00">$(MATHMLUNIFICATOR)</text>
</g>
<!-- $(MAVEN)&#45;&gt;$(MATHMLUNIFICATOR) -->
<g id="edge37" class="edge"><title>$(MAVEN)&#45;&gt;$(MATHMLUNIFICATOR)</title>
<path fill="none" stroke="black" d="M1556.24,-107.945C1553.42,-115.824 1550.01,-125.383 1546.86,-134.206"/>
<polygon fill="black" stroke="black" points="1543.53,-133.13 1543.46,-143.725 1550.12,-135.484 1543.53,-133.13"/>
</g>
<!-- $(MIREVAL) -->
<g id="node27" class="node"><title>$(MIREVAL)</title>
<ellipse fill="none" stroke="black" cx="1611.29" cy="-450" rx="61.99" ry="18"/>
<text text-anchor="middle" x="1611.29" y="-446.3" font-family="Times,serif" font-size="14.00">$(MIREVAL)</text>
</g>
<!-- $(MAVEN)&#45;&gt;$(MIREVAL) -->
<g id="edge38" class="edge"><title>$(MAVEN)&#45;&gt;$(MIREVAL)</title>
<path fill="none" stroke="black" d="M1606.79,-100.252C1635.87,-108.064 1673.32,-121.647 1700.29,-144 1736.09,-173.669 1755.29,-186.501 1755.29,-233 1755.29,-233 1755.29,-233 1755.29,-307 1755.29,-347.447 1762.04,-364.807 1736.29,-396 1719.8,-415.972 1694.45,-428.563 1670.87,-436.43"/>
<polygon fill="black" stroke="black" points="1669.76,-433.108 1661.25,-439.419 1671.84,-439.793 1669.76,-433.108"/>
</g>
<!-- $(MIASMATH)&#45;&gt;$(MIAS) -->
<g id="edge31" class="edge"><title>$(MIASMATH)&#45;&gt;$(MIAS)</title>
<path fill="none" stroke="black" d="M1515.84,-252.303C1513.83,-260.102 1511.42,-269.491 1509.19,-278.171"/>
<polygon fill="black" stroke="black" points="1505.79,-277.339 1506.69,-287.896 1512.57,-279.082 1505.79,-277.339"/>
</g>
<!-- $(MATHMLCAN)&#45;&gt;$(MIASMATH) -->
<g id="edge33" class="edge"><title>$(MATHMLCAN)&#45;&gt;$(MIASMATH)</title>
<path fill="none" stroke="black" d="M1365.69,-177.504C1396.43,-188.537 1438.85,-203.764 1471.48,-215.478"/>
<polygon fill="black" stroke="black" points="1470.67,-218.908 1481.27,-218.992 1473.04,-212.319 1470.67,-218.908"/>
</g>
<!-- $(MATHMLUNIFICATOR)&#45;&gt;$(MIASMATH) -->
<g id="edge34" class="edge"><title>$(MATHMLUNIFICATOR)&#45;&gt;$(MIASMATH)</title>
<path fill="none" stroke="black" d="M1533.09,-180.303C1531.19,-188.102 1528.91,-197.491 1526.81,-206.171"/>
<polygon fill="black" stroke="black" points="1523.4,-205.352 1524.44,-215.896 1530.2,-207.004 1523.4,-205.352"/>
</g>
<!-- $(MIREVAL)&#45;&gt;$(RESULTS_NTCIR11) -->
<g id="edge40" class="edge"><title>$(MIREVAL)&#45;&gt;$(RESULTS_NTCIR11)</title>
<path fill="none" stroke="black" d="M1571.19,-463.85C1545.72,-472.988 1512.72,-486.698 1486.29,-504 1466.83,-516.744 1468.94,-529.285 1448.29,-540 1398.58,-565.792 1337.55,-579.048 1286.8,-585.854"/>
<polygon fill="black" stroke="black" points="1286.27,-582.393 1276.79,-587.131 1287.15,-589.337 1286.27,-582.393"/>
</g>
<!-- $(NTCIR_MIAS_SEARCH) -->
<g id="node28" class="node"><title>$(NTCIR_MIAS_SEARCH)</title>
<ellipse fill="none" stroke="black" cx="1326.29" cy="-522" rx="113.18" ry="18"/>
<text text-anchor="middle" x="1326.29" y="-518.3" font-family="Times,serif" font-size="14.00">$(NTCIR_MIAS_SEARCH)</text>
</g>
<!-- $(NTCIR_MIAS_SEARCH)&#45;&gt;$(RESULTS_NTCIR11) -->
<g id="edge43" class="edge"><title>$(NTCIR_MIAS_SEARCH)&#45;&gt;$(RESULTS_NTCIR11)</title>
<path fill="none" stroke="black" d="M1293.59,-539.235C1273.74,-549.086 1248.23,-561.753 1226.95,-572.317"/>
<polygon fill="black" stroke="black" points="1225.22,-569.271 1217.81,-576.853 1228.33,-575.541 1225.22,-569.271"/>
</g>
<!-- $(TOMCAT)&#45;&gt;$(NTCIR_MIAS_SEARCH) -->
<g id="edge39" class="edge"><title>$(TOMCAT)&#45;&gt;$(NTCIR_MIAS_SEARCH)</title>
<path fill="none" stroke="black" d="M1382.36,-467.235C1373.16,-476.054 1361.61,-487.129 1351.39,-496.932"/>
<polygon fill="black" stroke="black" points="1348.69,-494.674 1343.89,-504.122 1353.53,-499.727 1348.69,-494.674"/>
</g>
<!-- $(TOPICS_NTCIR11) -->
<g id="node30" class="node"><title>$(TOPICS_NTCIR11)</title>
<ellipse fill="none" stroke="black" cx="1586.29" cy="-522" rx="90.9839" ry="18"/>
<text text-anchor="middle" x="1586.29" y="-518.3" font-family="Times,serif" font-size="14.00">$(TOPICS_NTCIR11)</text>
</g>
<!-- $(TOPICS_NTCIR11)&#45;&gt;$(RESULTS_NTCIR11) -->
<g id="edge41" class="edge"><title>$(TOPICS_NTCIR11)&#45;&gt;$(RESULTS_NTCIR11)</title>
<path fill="none" stroke="black" d="M1520.52,-534.481C1450.24,-546.749 1338.86,-566.193 1263.98,-579.264"/>
<polygon fill="black" stroke="black" points="1263.37,-575.817 1254.12,-580.985 1264.57,-582.713 1263.37,-575.817"/>
</g>
<!-- $(JDK) -->
<g id="node31" class="node"><title>$(JDK)</title>
<ellipse fill="none" stroke="black" cx="1562.29" cy="-18" rx="37.0935" ry="18"/>
<text text-anchor="middle" x="1562.29" y="-14.3" font-family="Times,serif" font-size="14.00">$(JDK)</text>
</g>
<!-- $(JDK)&#45;&gt;$(MAVEN) -->
<g id="edge46" class="edge"><title>$(JDK)&#45;&gt;$(MAVEN)</title>
<path fill="none" stroke="black" d="M1562.29,-36.3034C1562.29,-44.0173 1562.29,-53.2875 1562.29,-61.8876"/>
<polygon fill="black" stroke="black" points="1558.79,-61.8956 1562.29,-71.8957 1565.79,-61.8957 1558.79,-61.8956"/>
</g>
</g>
</svg>
