<?xml version="1.0" encoding="UTF-8" standalone="no"?>
<!DOCTYPE svg PUBLIC "-//W3C//DTD SVG 1.1//EN"
 "http://www.w3.org/Graphics/SVG/1.1/DTD/svg11.dtd">
<!-- Generated by graphviz version 2.40.1 (20161225.0304)
 -->
<!-- Title: G Pages: 1 -->
<svg width="1490pt" height="692pt"
 viewBox="0.00 0.00 1490.48 692.00" xmlns="http://www.w3.org/2000/svg" xmlns:xlink="http://www.w3.org/1999/xlink">
<g id="graph0" class="graph" transform="scale(1 1) rotate(0) translate(4 688)">
<title>G</title>
<polygon fill="#ffffff" stroke="transparent" points="-4,4 -4,-688 1486.481,-688 1486.481,4 -4,4"/>
<!-- plot -->
<g id="node1" class="node">
<title>plot</title>
<ellipse fill="none" stroke="#000000" cx="382.9908" cy="-162" rx="28.6953" ry="18"/>
<text text-anchor="middle" x="382.9908" y="-158.3" font-family="Times,serif" font-size="14.00" fill="#000000">plot</text>
</g>
<!-- $(MAKEFILE2DOT_PLOT) -->
<g id="node2" class="node">
<title>$(MAKEFILE2DOT_PLOT)</title>
<ellipse fill="none" stroke="#000000" cx="382.9908" cy="-90" rx="135.6761" ry="18"/>
<text text-anchor="middle" x="382.9908" y="-86.3" font-family="Times,serif" font-size="14.00" fill="#000000">$(MAKEFILE2DOT_PLOT)</text>
</g>
<!-- $(MAKEFILE2DOT_PLOT)&#45;&gt;plot -->
<g id="edge1" class="edge">
<title>$(MAKEFILE2DOT_PLOT)&#45;&gt;plot</title>
<path fill="none" stroke="#000000" d="M382.9908,-108.1686C382.9908,-115.869 382.9908,-125.0257 382.9908,-133.5834"/>
<polygon fill="#000000" stroke="#000000" points="379.4909,-133.5867 382.9908,-143.5867 386.4909,-133.5868 379.4909,-133.5867"/>
</g>
<!-- results -->
<g id="node3" class="node">
<title>results</title>
<ellipse fill="none" stroke="#000000" cx="849.9908" cy="-666" rx="42.7926" ry="18"/>
<text text-anchor="middle" x="849.9908" y="-662.3" font-family="Times,serif" font-size="14.00" fill="#000000">results</text>
</g>
<!-- $(RESULTS_NTCIR11) -->
<g id="node4" class="node">
<title>$(RESULTS_NTCIR11)</title>
<ellipse fill="none" stroke="#000000" cx="849.9908" cy="-594" rx="118.0794" ry="18"/>
<text text-anchor="middle" x="849.9908" y="-590.3" font-family="Times,serif" font-size="14.00" fill="#000000">$(RESULTS_NTCIR11)</text>
</g>
<!-- $(RESULTS_NTCIR11)&#45;&gt;results -->
<g id="edge2" class="edge">
<title>$(RESULTS_NTCIR11)&#45;&gt;results</title>
<path fill="none" stroke="#000000" d="M849.9908,-612.1686C849.9908,-619.869 849.9908,-629.0257 849.9908,-637.5834"/>
<polygon fill="#000000" stroke="#000000" points="846.4909,-637.5867 849.9908,-647.5867 853.4909,-637.5868 846.4909,-637.5867"/>
</g>
<!-- $(MAKEFILE2DOT) -->
<g id="node5" class="node">
<title>$(MAKEFILE2DOT)</title>
<ellipse fill="none" stroke="#000000" cx="103.9908" cy="-18" rx="103.9815" ry="18"/>
<text text-anchor="middle" x="103.9908" y="-14.3" font-family="Times,serif" font-size="14.00" fill="#000000">$(MAKEFILE2DOT)</text>
</g>
<!-- $(MAKEFILE2DOT)&#45;&gt;$(MAKEFILE2DOT_PLOT) -->
<g id="edge3" class="edge">
<title>$(MAKEFILE2DOT)&#45;&gt;$(MAKEFILE2DOT_PLOT)</title>
<path fill="none" stroke="#000000" d="M162.1387,-33.0059C205.286,-44.1407 264.3938,-59.3943 310.6033,-71.3194"/>
<polygon fill="#000000" stroke="#000000" points="309.9981,-74.7778 320.5555,-73.8877 311.7473,-67.9998 309.9981,-74.7778"/>
</g>
<!-- $(MAKEFILES_DEFINITIONS) -->
<g id="node6" class="node">
<title>$(MAKEFILES_DEFINITIONS)</title>
<ellipse fill="none" stroke="#000000" cx="382.9908" cy="-18" rx="157.0724" ry="18"/>
<text text-anchor="middle" x="382.9908" y="-14.3" font-family="Times,serif" font-size="14.00" fill="#000000">$(MAKEFILES_DEFINITIONS)</text>
</g>
<!-- $(MAKEFILES_DEFINITIONS)&#45;&gt;$(MAKEFILE2DOT_PLOT) -->
<g id="edge4" class="edge">
<title>$(MAKEFILES_DEFINITIONS)&#45;&gt;$(MAKEFILE2DOT_PLOT)</title>
<path fill="none" stroke="#000000" d="M382.9908,-36.1686C382.9908,-43.869 382.9908,-53.0257 382.9908,-61.5834"/>
<polygon fill="#000000" stroke="#000000" points="379.4909,-61.5867 382.9908,-71.5867 386.4909,-61.5868 379.4909,-61.5867"/>
</g>
<!-- $(MAKEFILES_RECIPES) -->
<g id="node7" class="node">
<title>$(MAKEFILES_RECIPES)</title>
<ellipse fill="none" stroke="#000000" cx="689.9908" cy="-18" rx="131.8766" ry="18"/>
<text text-anchor="middle" x="689.9908" y="-14.3" font-family="Times,serif" font-size="14.00" fill="#000000">$(MAKEFILES_RECIPES)</text>
</g>
<!-- $(MAKEFILES_RECIPES)&#45;&gt;$(MAKEFILE2DOT_PLOT) -->
<g id="edge5" class="edge">
<title>$(MAKEFILES_RECIPES)&#45;&gt;$(MAKEFILE2DOT_PLOT)</title>
<path fill="none" stroke="#000000" d="M623.3763,-33.6229C575.2659,-44.9062 510.1764,-60.1715 459.8612,-71.9718"/>
<polygon fill="#000000" stroke="#000000" points="458.9412,-68.5925 450.0046,-74.2834 460.5396,-75.4075 458.9412,-68.5925"/>
</g>
<!-- $(NTCIR_MATH_DENSITY_NTCIR11_ONLY) -->
<g id="node8" class="node">
<title>$(NTCIR_MATH_DENSITY_NTCIR11_ONLY)</title>
<ellipse fill="none" stroke="#000000" cx="516.9908" cy="-522" rx="223.6604" ry="18"/>
<text text-anchor="middle" x="516.9908" y="-518.3" font-family="Times,serif" font-size="14.00" fill="#000000">$(NTCIR_MATH_DENSITY_NTCIR11_ONLY)</text>
</g>
<!-- $(NTCIR_MATH_DENSITY_NTCIR11_ONLY)&#45;&gt;$(RESULTS_NTCIR11) -->
<g id="edge26" class="edge">
<title>$(NTCIR_MATH_DENSITY_NTCIR11_ONLY)&#45;&gt;$(RESULTS_NTCIR11)</title>
<path fill="none" stroke="#000000" d="M595.0645,-538.8808C648.2502,-550.3804 718.3942,-565.5467 771.6389,-577.0591"/>
<polygon fill="#000000" stroke="#000000" points="771.2001,-580.545 781.714,-579.2374 772.6795,-573.7031 771.2001,-580.545"/>
</g>
<!-- $(JUDGEMENTS_NTCIR11) -->
<g id="node9" class="node">
<title>$(JUDGEMENTS_NTCIR11)</title>
<ellipse fill="none" stroke="#000000" cx="404.9908" cy="-450" rx="142.9746" ry="18"/>
<text text-anchor="middle" x="404.9908" y="-446.3" font-family="Times,serif" font-size="14.00" fill="#000000">$(JUDGEMENTS_NTCIR11)</text>
</g>
<!-- $(JUDGEMENTS_NTCIR11)&#45;&gt;$(RESULTS_NTCIR11) -->
<g id="edge23" class="edge">
<title>$(JUDGEMENTS_NTCIR11)&#45;&gt;$(RESULTS_NTCIR11)</title>
<path fill="none" stroke="#000000" d="M335.0912,-465.7118C315.2001,-473.7605 295.7599,-485.8596 283.9908,-504 275.2824,-517.4226 273.2277,-528.1612 283.9908,-540 312.9248,-571.8259 564.8339,-585.3466 722.6793,-590.7351"/>
<polygon fill="#000000" stroke="#000000" points="722.8255,-594.2419 732.937,-591.0784 723.0596,-587.2458 722.8255,-594.2419"/>
</g>
<!-- $(JUDGEMENTS_NTCIR11)&#45;&gt;$(NTCIR_MATH_DENSITY_NTCIR11_ONLY) -->
<g id="edge6" class="edge">
<title>$(JUDGEMENTS_NTCIR11)&#45;&gt;$(NTCIR_MATH_DENSITY_NTCIR11_ONLY)</title>
<path fill="none" stroke="#000000" d="M432.6762,-467.7978C446.9719,-476.9879 464.6084,-488.3256 480.0498,-498.2522"/>
<polygon fill="#000000" stroke="#000000" points="478.5415,-501.4434 488.8459,-503.9069 482.3268,-495.5551 478.5415,-501.4434"/>
</g>
<!-- $(DATASET_NTCIR11_12) -->
<g id="node10" class="node">
<title>$(DATASET_NTCIR11_12)</title>
<ellipse fill="none" stroke="#000000" cx="715.9908" cy="-306" rx="135.3763" ry="18"/>
<text text-anchor="middle" x="715.9908" y="-302.3" font-family="Times,serif" font-size="14.00" fill="#000000">$(DATASET_NTCIR11_12)</text>
</g>
<!-- $(DATASET_NTCIR11_12)&#45;&gt;$(RESULTS_NTCIR11) -->
<g id="edge25" class="edge">
<title>$(DATASET_NTCIR11_12)&#45;&gt;$(RESULTS_NTCIR11)</title>
<path fill="none" stroke="#000000" d="M718.1268,-324.1507C723.6872,-365.4809 741.5458,-468.5465 787.9908,-540 795.2954,-551.2378 805.5827,-561.4967 815.6819,-569.9829"/>
<polygon fill="#000000" stroke="#000000" points="813.6883,-572.8705 823.6803,-576.3934 818.0661,-567.4084 813.6883,-572.8705"/>
</g>
<!-- $(DATASET_NTCIR11_12)&#45;&gt;$(NTCIR_MATH_DENSITY_NTCIR11_ONLY) -->
<g id="edge7" class="edge">
<title>$(DATASET_NTCIR11_12)&#45;&gt;$(NTCIR_MATH_DENSITY_NTCIR11_ONLY)</title>
<path fill="none" stroke="#000000" d="M699.3664,-324.0445C664.0294,-362.4003 581.3527,-452.1398 540.5795,-496.3962"/>
<polygon fill="#000000" stroke="#000000" points="537.9094,-494.1288 533.7078,-503.8549 543.0576,-498.8719 537.9094,-494.1288"/>
</g>
<!-- $(INDEX_NTCIR11_12) -->
<g id="node11" class="node">
<title>$(INDEX_NTCIR11_12)</title>
<ellipse fill="none" stroke="#000000" cx="918.9908" cy="-378" rx="122.3786" ry="18"/>
<text text-anchor="middle" x="918.9908" y="-374.3" font-family="Times,serif" font-size="14.00" fill="#000000">$(INDEX_NTCIR11_12)</text>
</g>
<!-- $(DATASET_NTCIR11_12)&#45;&gt;$(INDEX_NTCIR11_12) -->
<g id="edge9" class="edge">
<title>$(DATASET_NTCIR11_12)&#45;&gt;$(INDEX_NTCIR11_12)</title>
<path fill="none" stroke="#000000" d="M763.5853,-322.8808C793.088,-333.3448 831.1506,-346.8449 862.2222,-357.8653"/>
<polygon fill="#000000" stroke="#000000" points="861.4502,-361.3051 872.0449,-361.3493 863.7902,-354.7078 861.4502,-361.3051"/>
</g>
<!-- $(TOMCAT) -->
<g id="node20" class="node">
<title>$(TOMCAT)</title>
<ellipse fill="none" stroke="#000000" cx="931.9908" cy="-450" rx="66.8882" ry="18"/>
<text text-anchor="middle" x="931.9908" y="-446.3" font-family="Times,serif" font-size="14.00" fill="#000000">$(TOMCAT)</text>
</g>
<!-- $(INDEX_NTCIR11_12)&#45;&gt;$(TOMCAT) -->
<g id="edge29" class="edge">
<title>$(INDEX_NTCIR11_12)&#45;&gt;$(TOMCAT)</title>
<path fill="none" stroke="#000000" d="M922.2712,-396.1686C923.6616,-403.869 925.3148,-413.0257 926.86,-421.5834"/>
<polygon fill="#000000" stroke="#000000" points="923.4449,-422.3678 928.6662,-431.5867 930.3336,-421.1239 923.4449,-422.3678"/>
</g>
<!-- $(MIAS) -->
<g id="node12" class="node">
<title>$(MIAS)</title>
<ellipse fill="none" stroke="#000000" cx="918.9908" cy="-306" rx="50.0912" ry="18"/>
<text text-anchor="middle" x="918.9908" y="-302.3" font-family="Times,serif" font-size="14.00" fill="#000000">$(MIAS)</text>
</g>
<!-- $(MIAS)&#45;&gt;$(INDEX_NTCIR11_12) -->
<g id="edge8" class="edge">
<title>$(MIAS)&#45;&gt;$(INDEX_NTCIR11_12)</title>
<path fill="none" stroke="#000000" d="M918.9908,-324.1686C918.9908,-331.869 918.9908,-341.0257 918.9908,-349.5834"/>
<polygon fill="#000000" stroke="#000000" points="915.4909,-349.5867 918.9908,-359.5867 922.4909,-349.5868 915.4909,-349.5867"/>
</g>
<!-- $(WEBMIAS) -->
<g id="node13" class="node">
<title>$(WEBMIAS)</title>
<ellipse fill="none" stroke="#000000" cx="1132.9908" cy="-378" rx="73.387" ry="18"/>
<text text-anchor="middle" x="1132.9908" y="-374.3" font-family="Times,serif" font-size="14.00" fill="#000000">$(WEBMIAS)</text>
</g>
<!-- $(MIAS)&#45;&gt;$(WEBMIAS) -->
<g id="edge10" class="edge">
<title>$(MIAS)&#45;&gt;$(WEBMIAS)</title>
<path fill="none" stroke="#000000" d="M955.7787,-318.3772C990.0407,-329.9046 1041.4987,-347.2176 1080.151,-360.2221"/>
<polygon fill="#000000" stroke="#000000" points="1079.0896,-363.5578 1089.6837,-363.4294 1081.3218,-356.9232 1079.0896,-363.5578"/>
</g>
<!-- $(WEBMIAS)&#45;&gt;$(TOMCAT) -->
<g id="edge28" class="edge">
<title>$(WEBMIAS)&#45;&gt;$(TOMCAT)</title>
<path fill="none" stroke="#000000" d="M1091.3434,-392.9184C1059.5275,-404.3152 1015.5616,-420.0642 981.8689,-432.1332"/>
<polygon fill="#000000" stroke="#000000" points="980.4471,-428.9247 972.2132,-435.592 982.8077,-435.5146 980.4471,-428.9247"/>
</g>
<!-- $(MAVEN) -->
<g id="node14" class="node">
<title>$(MAVEN)</title>
<ellipse fill="none" stroke="#000000" cx="881.9908" cy="-90" rx="61.1893" ry="18"/>
<text text-anchor="middle" x="881.9908" y="-86.3" font-family="Times,serif" font-size="14.00" fill="#000000">$(MAVEN)</text>
</g>
<!-- $(MAVEN)&#45;&gt;$(MIAS) -->
<g id="edge13" class="edge">
<title>$(MAVEN)&#45;&gt;$(MIAS)</title>
<path fill="none" stroke="#000000" d="M823.3029,-95.2514C761.0196,-102.183 668.6342,-116.8191 646.9908,-144 637.0241,-156.5166 639.5972,-165.8108 646.9908,-180 672.8006,-229.5324 699.9351,-227.2203 749.9908,-252 755.64,-254.7966 823.1851,-276.1024 871.1465,-291.099"/>
<polygon fill="#000000" stroke="#000000" points="870.1649,-294.4591 880.7537,-294.1006 872.2525,-287.7776 870.1649,-294.4591"/>
</g>
<!-- $(MAVEN)&#45;&gt;$(WEBMIAS) -->
<g id="edge11" class="edge">
<title>$(MAVEN)&#45;&gt;$(WEBMIAS)</title>
<path fill="none" stroke="#000000" d="M941.836,-93.6234C1011.8888,-99.2595 1121.596,-112.9086 1146.9908,-144 1195.6619,-203.5893 1164.8119,-302.7818 1145.348,-350.5867"/>
<polygon fill="#000000" stroke="#000000" points="1142.0502,-349.4001 1141.4002,-359.975 1148.5029,-352.1136 1142.0502,-349.4001"/>
</g>
<!-- $(MIASMATH) -->
<g id="node15" class="node">
<title>$(MIASMATH)</title>
<ellipse fill="none" stroke="#000000" cx="838.9908" cy="-234" rx="79.8859" ry="18"/>
<text text-anchor="middle" x="838.9908" y="-230.3" font-family="Times,serif" font-size="14.00" fill="#000000">$(MIASMATH)</text>
</g>
<!-- $(MAVEN)&#45;&gt;$(MIASMATH) -->
<g id="edge16" class="edge">
<title>$(MAVEN)&#45;&gt;$(MIASMATH)</title>
<path fill="none" stroke="#000000" d="M824.1149,-95.9633C765.0266,-103.387 679.1877,-118.3286 658.9908,-144 625.668,-186.355 697.8492,-210.3435 760.4931,-222.7216"/>
<polygon fill="#000000" stroke="#000000" points="759.9705,-226.1848 770.4476,-224.6096 761.2749,-219.3074 759.9705,-226.1848"/>
</g>
<!-- $(MATHMLCAN) -->
<g id="node16" class="node">
<title>$(MATHMLCAN)</title>
<ellipse fill="none" stroke="#000000" cx="759.9908" cy="-162" rx="91.784" ry="18"/>
<text text-anchor="middle" x="759.9908" y="-158.3" font-family="Times,serif" font-size="14.00" fill="#000000">$(MATHMLCAN)</text>
</g>
<!-- $(MAVEN)&#45;&gt;$(MATHMLCAN) -->
<g id="edge17" class="edge">
<title>$(MAVEN)&#45;&gt;$(MATHMLCAN)</title>
<path fill="none" stroke="#000000" d="M854.6116,-106.1582C837.8277,-116.0635 816.1053,-128.8832 797.7076,-139.7409"/>
<polygon fill="#000000" stroke="#000000" points="795.8124,-136.7953 788.9792,-144.8921 799.3702,-142.8237 795.8124,-136.7953"/>
</g>
<!-- $(MATHMLUNIFICATOR) -->
<g id="node17" class="node">
<title>$(MATHMLUNIFICATOR)</title>
<ellipse fill="none" stroke="#000000" cx="1003.9908" cy="-162" rx="133.7763" ry="18"/>
<text text-anchor="middle" x="1003.9908" y="-158.3" font-family="Times,serif" font-size="14.00" fill="#000000">$(MATHMLUNIFICATOR)</text>
</g>
<!-- $(MAVEN)&#45;&gt;$(MATHMLUNIFICATOR) -->
<g id="edge18" class="edge">
<title>$(MAVEN)&#45;&gt;$(MATHMLUNIFICATOR)</title>
<path fill="none" stroke="#000000" d="M909.37,-106.1582C925.9124,-115.921 947.2522,-128.5149 965.4778,-139.271"/>
<polygon fill="#000000" stroke="#000000" points="963.7491,-142.3149 974.1401,-144.3832 967.3069,-136.2864 963.7491,-142.3149"/>
</g>
<!-- $(MIREVAL) -->
<g id="node18" class="node">
<title>$(MIREVAL)</title>
<ellipse fill="none" stroke="#000000" cx="1263.9908" cy="-234" rx="69.5877" ry="18"/>
<text text-anchor="middle" x="1263.9908" y="-230.3" font-family="Times,serif" font-size="14.00" fill="#000000">$(MIREVAL)</text>
</g>
<!-- $(MAVEN)&#45;&gt;$(MIREVAL) -->
<g id="edge19" class="edge">
<title>$(MAVEN)&#45;&gt;$(MIREVAL)</title>
<path fill="none" stroke="#000000" d="M939.5261,-96.0674C1014.1117,-104.6724 1139.4338,-121.8665 1179.9908,-144 1207.7339,-159.1405 1231.4539,-186.8193 1246.5417,-207.4995"/>
<polygon fill="#000000" stroke="#000000" points="1243.8345,-209.7331 1252.466,-215.877 1249.5498,-205.6914 1243.8345,-209.7331"/>
</g>
<!-- $(MIASMATH)&#45;&gt;$(MIAS) -->
<g id="edge12" class="edge">
<title>$(MIASMATH)&#45;&gt;$(MIAS)</title>
<path fill="none" stroke="#000000" d="M858.7661,-251.7978C868.9679,-260.9794 881.5516,-272.3048 892.5739,-282.2248"/>
<polygon fill="#000000" stroke="#000000" points="890.4931,-285.0609 900.2675,-289.149 895.1759,-279.8578 890.4931,-285.0609"/>
</g>
<!-- $(MATHMLCAN)&#45;&gt;$(MIASMATH) -->
<g id="edge14" class="edge">
<title>$(MATHMLCAN)&#45;&gt;$(MIASMATH)</title>
<path fill="none" stroke="#000000" d="M779.5189,-179.7978C789.3726,-188.7783 801.4765,-199.8098 812.1869,-209.5711"/>
<polygon fill="#000000" stroke="#000000" points="809.9387,-212.2577 819.6873,-216.407 814.654,-207.0841 809.9387,-212.2577"/>
</g>
<!-- $(MATHMLUNIFICATOR)&#45;&gt;$(MIASMATH) -->
<g id="edge15" class="edge">
<title>$(MATHMLUNIFICATOR)&#45;&gt;$(MIASMATH)</title>
<path fill="none" stroke="#000000" d="M964.4692,-179.2458C940.5446,-189.6856 909.9297,-203.0448 884.9297,-213.9539"/>
<polygon fill="#000000" stroke="#000000" points="883.4144,-210.7964 875.6488,-218.0038 886.2141,-217.2121 883.4144,-210.7964"/>
</g>
<!-- $(MIREVAL)&#45;&gt;$(RESULTS_NTCIR11) -->
<g id="edge21" class="edge">
<title>$(MIREVAL)&#45;&gt;$(RESULTS_NTCIR11)</title>
<path fill="none" stroke="#000000" d="M1257.7748,-251.9352C1248.9876,-278.9324 1233.9908,-331.7784 1233.9908,-378 1233.9908,-378 1233.9908,-378 1233.9908,-450 1233.9908,-512.4619 1053.6139,-556.9461 940.1098,-578.7551"/>
<polygon fill="#000000" stroke="#000000" points="939.1953,-575.366 930.0223,-580.6677 940.4993,-582.2435 939.1953,-575.366"/>
</g>
<!-- $(NTCIR_MIAS_SEARCH) -->
<g id="node19" class="node">
<title>$(NTCIR_MIAS_SEARCH)</title>
<ellipse fill="none" stroke="#000000" cx="931.9908" cy="-522" rx="134.5761" ry="18"/>
<text text-anchor="middle" x="931.9908" y="-518.3" font-family="Times,serif" font-size="14.00" fill="#000000">$(NTCIR_MIAS_SEARCH)</text>
</g>
<!-- $(NTCIR_MIAS_SEARCH)&#45;&gt;$(RESULTS_NTCIR11) -->
<g id="edge24" class="edge">
<title>$(NTCIR_MIAS_SEARCH)&#45;&gt;$(RESULTS_NTCIR11)</title>
<path fill="none" stroke="#000000" d="M911.7211,-539.7978C901.5695,-548.7113 889.117,-559.6452 878.0617,-569.3524"/>
<polygon fill="#000000" stroke="#000000" points="875.5166,-566.9294 870.3115,-576.1575 880.1352,-572.1895 875.5166,-566.9294"/>
</g>
<!-- $(TOMCAT)&#45;&gt;$(NTCIR_MIAS_SEARCH) -->
<g id="edge20" class="edge">
<title>$(TOMCAT)&#45;&gt;$(NTCIR_MIAS_SEARCH)</title>
<path fill="none" stroke="#000000" d="M931.9908,-468.1686C931.9908,-475.869 931.9908,-485.0257 931.9908,-493.5834"/>
<polygon fill="#000000" stroke="#000000" points="928.4909,-493.5867 931.9908,-503.5867 935.4909,-493.5868 928.4909,-493.5867"/>
</g>
<!-- $(TOPICS_NTCIR11) -->
<g id="node21" class="node">
<title>$(TOPICS_NTCIR11)</title>
<ellipse fill="none" stroke="#000000" cx="1371.9908" cy="-522" rx="110.4804" ry="18"/>
<text text-anchor="middle" x="1371.9908" y="-518.3" font-family="Times,serif" font-size="14.00" fill="#000000">$(TOPICS_NTCIR11)</text>
</g>
<!-- $(TOPICS_NTCIR11)&#45;&gt;$(RESULTS_NTCIR11) -->
<g id="edge22" class="edge">
<title>$(TOPICS_NTCIR11)&#45;&gt;$(RESULTS_NTCIR11)</title>
<path fill="none" stroke="#000000" d="M1289.6314,-534.0649C1275.7352,-536.0691 1261.4546,-538.1095 1247.9908,-540 1146.3421,-554.2732 1029.9966,-569.9865 949.4655,-580.7644"/>
<polygon fill="#000000" stroke="#000000" points="948.7808,-577.3247 939.3331,-582.1197 949.7089,-584.2629 948.7808,-577.3247"/>
</g>
<!-- $(JDK) -->
<g id="node22" class="node">
<title>$(JDK)</title>
<ellipse fill="none" stroke="#000000" cx="881.9908" cy="-18" rx="41.6928" ry="18"/>
<text text-anchor="middle" x="881.9908" y="-14.3" font-family="Times,serif" font-size="14.00" fill="#000000">$(JDK)</text>
</g>
<!-- $(JDK)&#45;&gt;$(MAVEN) -->
<g id="edge27" class="edge">
<title>$(JDK)&#45;&gt;$(MAVEN)</title>
<path fill="none" stroke="#000000" d="M881.9908,-36.1686C881.9908,-43.869 881.9908,-53.0257 881.9908,-61.5834"/>
<polygon fill="#000000" stroke="#000000" points="878.4909,-61.5867 881.9908,-71.5867 885.4909,-61.5868 878.4909,-61.5867"/>
</g>
<!-- analysis -->
<g id="node23" class="node">
<title>analysis</title>
<ellipse fill="none" stroke="#000000" cx="989.9908" cy="-18" rx="48.1917" ry="18"/>
<text text-anchor="middle" x="989.9908" y="-14.3" font-family="Times,serif" font-size="14.00" fill="#000000">analysis</text>
</g>
</g>
</svg>
